# Blender v2.81 (sub 16) OBJ File: 'Building Proxies.blend'
# www.blender.org
mtllib building_proxy_castle.mtl
o Castle_keep_Cube.001
v 0.491971 1.227606 0.491971
v 0.686300 0.119217 0.217070
v -0.491971 1.227606 0.491971
v -0.686300 0.000000 0.686300
v 0.491971 1.227606 -0.491971
v 0.686300 0.119217 -0.217070
v -0.491971 1.227606 -0.491971
v -0.686300 0.000000 -0.686300
v -0.686300 1.227606 0.686300
v -0.686300 1.227606 -0.686300
v 0.686300 0.817814 0.217070
v 0.686300 0.817814 -0.217070
v -0.343104 0.900357 0.343104
v -0.343104 0.900357 -0.343104
v 0.343104 0.900357 0.343104
v 0.343104 0.900357 -0.343104
v -0.491971 0.900357 0.491971
v -0.491971 0.900357 -0.491971
v 0.491971 0.900357 0.491971
v 0.491971 0.900357 -0.491971
v -0.343104 1.139230 0.343104
v -0.343104 1.139230 -0.343104
v 0.343104 1.139230 0.343104
v 0.343104 1.139230 -0.343104
v 0.686300 0.000000 0.686300
v 0.686300 0.000000 -0.686300
v 0.686300 1.227606 0.686300
v 0.686300 1.227606 -0.686300
v 0.460706 0.180724 0.217070
v 0.460706 0.180724 -0.217070
v 0.460706 0.817814 0.217070
v 0.460706 0.817814 -0.217070
vt 0.867820 0.507180
vt 0.867820 0.742820
vt 0.867820 0.742820
vt 0.867820 0.507180
vt 0.375000 0.750000
vt 0.625000 0.750000
vt 0.625000 1.000000
vt 0.375000 1.000000
vt 0.375000 0.000000
vt 0.625000 0.000000
vt 0.625000 0.250000
vt 0.375000 0.250000
vt 0.125000 0.500000
vt 0.375000 0.500000
vt 0.125000 0.750000
vt 0.625000 0.500000
vt 0.375000 0.500000
vt 0.375000 0.250000
vt 0.375000 0.250000
vt 0.375000 0.500000
vt 0.632180 0.742820
vt 0.875000 0.750000
vt 0.632180 0.507180
vt 0.875000 0.500000
vt 0.667831 0.542831
vt 0.832169 0.542831
vt 0.832169 0.542831
vt 0.667831 0.542831
vt 0.632180 0.742820
vt 0.632180 0.507180
vt 0.667831 0.707169
vt 0.832169 0.707169
vt 0.832169 0.707169
vt 0.667831 0.707169
vt 0.625000 0.500000
vt 0.625000 0.250000
vt 0.625000 0.250000
vt 0.625000 0.500000
vn 0.0000 0.0000 1.0000
vn -1.0000 0.0000 0.0000
vn -0.0000 0.0000 -1.0000
vn 0.0000 -1.0000 0.0000
vn 0.2630 0.9648 0.0000
vn 0.0000 1.0000 0.0000
vn 1.0000 0.0000 -0.0000
usemtl Material
s off
f 5/1/1 7/2/1 18/3/1 20/4/1
f 4/5/2 9/6/2 10/7/2 8/8/2
f 8/9/3 10/10/3 28/11/3 26/12/3
f 26/13/4 25/14/4 4/5/4 8/15/4
f 25/14/1 27/16/1 9/6/1 4/5/1
f 2/17/5 6/18/5 30/19/5 29/20/5
f 3/21/6 7/2/6 10/22/6 9/6/6
f 1/23/6 3/21/6 9/6/6 27/16/6
f 7/2/6 5/1/6 28/24/6 10/22/6
f 5/1/6 1/23/6 27/16/6 28/24/6
f 15/25/7 16/26/7 24/27/7 23/28/7
f 7/2/7 3/21/7 17/29/7 18/3/7
f 1/23/2 5/1/2 20/4/2 19/30/2
f 3/21/3 1/23/3 19/30/3 17/29/3
f 13/31/6 14/32/6 18/3/6 17/29/6
f 15/25/6 13/31/6 17/29/6 19/30/6
f 14/32/6 16/26/6 20/4/6 18/3/6
f 16/26/6 15/25/6 19/30/6 20/4/6
f 23/28/6 24/27/6 22/33/6 21/34/6
f 13/31/1 15/25/1 23/28/1 21/34/1
f 16/26/3 14/32/3 22/33/3 24/27/3
f 14/32/2 13/31/2 21/34/2 22/33/2
f 6/18/7 2/17/7 25/14/7 26/12/7
f 2/17/7 11/35/7 27/16/7 25/14/7
f 12/36/7 6/18/7 26/12/7 28/11/7
f 11/35/7 12/36/7 28/11/7 27/16/7
f 30/19/7 32/37/7 31/38/7 29/20/7
f 12/36/4 11/35/4 31/38/4 32/37/4
f 11/35/3 2/17/3 29/20/3 31/38/3
f 6/18/1 12/36/1 32/37/1 30/19/1
o Castle_Tower_d_Cube.002
v -0.380312 1.614464 0.819687
v -0.325570 0.000000 0.874430
v -0.819687 1.614464 0.819688
v -0.874430 0.000000 0.874430
v -0.380313 1.614464 0.380313
v -0.325570 0.000000 0.325570
v -0.819687 1.614464 0.380313
v -0.874430 0.000000 0.325570
v -0.400042 0.278332 0.799958
v -0.341503 0.251815 0.858497
v -0.858497 0.251815 0.341503
v -0.799958 0.278332 0.400042
v -0.799958 0.278332 0.799958
v -0.858497 0.251815 0.858497
v -0.341503 0.251815 0.341503
v -0.400042 0.278332 0.400042
v -0.787613 1.453621 0.412387
v -0.829920 1.476145 0.370080
v -0.370080 1.476145 0.829920
v -0.412387 1.453621 0.787613
v -0.829920 1.476145 0.829920
v -0.787613 1.453621 0.787613
v -0.412387 1.453621 0.412387
v -0.370080 1.476145 0.370080
v -0.600000 1.981105 0.600000
vt 0.875000 0.500000
vt 0.875000 0.750000
vt 0.750000 0.625000
vt 0.500620 0.750000
vt 0.561703 0.750000
vt 0.561703 1.000000
vt 0.500620 1.000000
vt 0.500620 0.000000
vt 0.561703 0.000000
vt 0.561703 0.250000
vt 0.500620 0.250000
vt 0.125000 0.500000
vt 0.375000 0.500000
vt 0.375000 0.750000
vt 0.125000 0.750000
vt 0.500620 0.500000
vt 0.561703 0.500000
vt 0.375000 0.250000
vt 0.487520 0.250000
vt 0.487520 0.500000
vt 0.567251 0.250000
vt 0.625000 0.250000
vt 0.625000 0.500000
vt 0.567251 0.500000
vt 0.375000 0.000000
vt 0.487520 0.000000
vt 0.487520 0.750000
vt 0.487520 1.000000
vt 0.375000 1.000000
vt 0.625000 0.750000
vt 0.567251 0.750000
vt 0.625000 1.000000
vt 0.567251 1.000000
vt 0.567251 0.000000
vt 0.625000 0.000000
vn 0.0000 0.5140 -0.8578
vn -0.9999 0.0105 0.0000
vn -0.0000 0.0105 -0.9999
vn 0.0000 -1.0000 0.0000
vn 0.0000 0.0105 0.9999
vn 0.9999 0.0105 -0.0000
vn 0.9980 0.0631 -0.0000
vn 0.9973 0.0738 -0.0000
vn -0.0000 0.0631 -0.9980
vn -0.9980 0.0631 0.0000
vn 0.0000 0.0738 0.9973
vn -0.9973 0.0738 0.0000
vn 0.4126 0.9109 -0.0000
vn 0.0000 0.9109 0.4126
vn 0.0000 0.9109 -0.4126
vn -0.4126 0.9109 -0.0000
vn 0.0000 0.0631 0.9980
vn 0.4699 -0.8827 -0.0000
vn 0.0000 -0.8827 0.4699
vn -0.0000 -0.8827 -0.4699
vn -0.4699 -0.8827 0.0000
vn -0.0000 0.0738 -0.9973
vn 0.0000 0.5140 0.8578
vn 0.8578 0.5140 0.0000
vn -0.8578 0.5140 0.0000
usemtl Material
s off
f 37/39/8 39/40/8 57/41/8
f 45/42/9 54/43/9 49/44/9 44/45/9
f 44/46/10 49/47/10 55/48/10 48/49/10
f 38/50/11 34/51/11 36/52/11 40/53/11
f 41/54/12 52/55/12 54/43/12 45/42/12
f 48/49/13 55/48/13 52/55/13 41/54/13
f 38/56/14 47/57/14 42/58/14 34/51/14
f 56/59/15 37/60/15 33/61/15 51/62/15
f 40/63/16 43/64/16 47/57/16 38/56/16
f 36/52/17 46/65/17 43/66/17 40/67/17
f 51/62/18 33/61/18 35/68/18 53/69/18
f 53/69/19 35/68/19 39/70/19 50/71/19
f 48/49/20 41/54/20 42/58/20 47/57/20
f 41/54/21 45/42/21 46/65/21 42/58/21
f 44/46/22 48/49/22 47/57/22 43/64/22
f 45/42/23 44/45/23 43/66/23 46/65/23
f 34/51/24 42/58/24 46/65/24 36/52/24
f 56/59/25 51/62/25 52/55/25 55/48/25
f 51/62/26 53/69/26 54/43/26 52/55/26
f 50/72/27 56/59/27 55/48/27 49/47/27
f 53/69/28 50/71/28 49/44/28 54/43/28
f 50/72/29 39/73/29 37/60/29 56/59/29
f 35/68/30 33/61/30 57/41/30
f 33/61/31 37/39/31 57/41/31
f 39/40/32 35/68/32 57/41/32
o Castle_Tower_c_Cube.003
v -0.380313 1.614464 -0.380313
v -0.325570 0.000000 -0.325570
v -0.819687 1.614464 -0.380312
v -0.874430 0.000000 -0.325570
v -0.380313 1.614464 -0.819687
v -0.325570 0.000000 -0.874430
v -0.819688 1.614464 -0.819687
v -0.874430 0.000000 -0.874430
v -0.400042 0.278332 -0.400042
v -0.341503 0.251815 -0.341503
v -0.858497 0.251815 -0.858497
v -0.799958 0.278332 -0.799958
v -0.799958 0.278332 -0.400042
v -0.858497 0.251815 -0.341503
v -0.341503 0.251815 -0.858497
v -0.400042 0.278332 -0.799958
v -0.787613 1.453621 -0.787613
v -0.829920 1.476145 -0.829920
v -0.370080 1.476145 -0.370080
v -0.412387 1.453621 -0.412387
v -0.829920 1.476145 -0.370080
v -0.787613 1.453621 -0.412387
v -0.412387 1.453621 -0.787613
v -0.370080 1.476145 -0.829920
v -0.600000 1.981105 -0.600000
vt 0.875000 0.500000
vt 0.875000 0.750000
vt 0.750000 0.625000
vt 0.500620 0.750000
vt 0.561703 0.750000
vt 0.561703 1.000000
vt 0.500620 1.000000
vt 0.500620 0.000000
vt 0.561703 0.000000
vt 0.561703 0.250000
vt 0.500620 0.250000
vt 0.125000 0.500000
vt 0.375000 0.500000
vt 0.375000 0.750000
vt 0.125000 0.750000
vt 0.500620 0.500000
vt 0.561703 0.500000
vt 0.375000 0.250000
vt 0.487520 0.250000
vt 0.487520 0.500000
vt 0.567251 0.250000
vt 0.625000 0.250000
vt 0.625000 0.500000
vt 0.567251 0.500000
vt 0.375000 0.000000
vt 0.487520 0.000000
vt 0.487520 0.750000
vt 0.487520 1.000000
vt 0.375000 1.000000
vt 0.625000 0.750000
vt 0.567251 0.750000
vt 0.625000 1.000000
vt 0.567251 1.000000
vt 0.567251 0.000000
vt 0.625000 0.000000
vn -0.0000 0.5140 -0.8578
vn -0.9999 0.0105 0.0000
vn 0.0000 0.0105 -0.9999
vn 0.0000 -1.0000 0.0000
vn 0.0000 0.0105 0.9999
vn 0.9999 0.0105 -0.0000
vn 0.9980 0.0631 -0.0000
vn 0.9973 0.0738 -0.0000
vn -0.0000 0.0631 -0.9980
vn -0.9980 0.0631 0.0000
vn 0.0000 0.0738 0.9973
vn -0.9973 0.0738 0.0000
vn 0.4126 0.9109 -0.0000
vn 0.0000 0.9109 0.4126
vn -0.0000 0.9109 -0.4126
vn -0.4126 0.9109 0.0000
vn 0.0000 0.0631 0.9980
vn 0.4699 -0.8827 -0.0000
vn 0.0000 -0.8827 0.4699
vn -0.0000 -0.8827 -0.4699
vn -0.4699 -0.8827 0.0000
vn -0.0000 0.0738 -0.9973
vn 0.0000 0.5140 0.8578
vn 0.8578 0.5140 0.0000
vn -0.8578 0.5140 0.0000
usemtl Material
s off
f 62/74/33 64/75/33 82/76/33
f 70/77/34 79/78/34 74/79/34 69/80/34
f 69/81/35 74/82/35 80/83/35 73/84/35
f 63/85/36 59/86/36 61/87/36 65/88/36
f 66/89/37 77/90/37 79/78/37 70/77/37
f 73/84/38 80/83/38 77/90/38 66/89/38
f 63/91/39 72/92/39 67/93/39 59/86/39
f 81/94/40 62/95/40 58/96/40 76/97/40
f 65/98/41 68/99/41 72/92/41 63/91/41
f 61/87/42 71/100/42 68/101/42 65/102/42
f 76/97/43 58/96/43 60/103/43 78/104/43
f 78/104/44 60/103/44 64/105/44 75/106/44
f 73/84/45 66/89/45 67/93/45 72/92/45
f 66/89/46 70/77/46 71/100/46 67/93/46
f 69/81/47 73/84/47 72/92/47 68/99/47
f 70/77/48 69/80/48 68/101/48 71/100/48
f 59/86/49 67/93/49 71/100/49 61/87/49
f 81/94/50 76/97/50 77/90/50 80/83/50
f 76/97/51 78/104/51 79/78/51 77/90/51
f 75/107/52 81/94/52 80/83/52 74/82/52
f 78/104/53 75/106/53 74/79/53 79/78/53
f 75/107/54 64/108/54 62/95/54 81/94/54
f 60/103/55 58/96/55 82/76/55
f 58/96/56 62/74/56 82/76/56
f 64/75/57 60/103/57 82/76/57
o Castle_Tower_b_Cube.004
v 0.819687 1.614464 -0.380313
v 0.874430 0.000000 -0.325570
v 0.380313 1.614464 -0.380313
v 0.325570 0.000000 -0.325570
v 0.819687 1.614464 -0.819688
v 0.874430 0.000000 -0.874430
v 0.380312 1.614464 -0.819687
v 0.325570 0.000000 -0.874430
v 0.799958 0.278332 -0.400042
v 0.858497 0.251815 -0.341503
v 0.341503 0.251815 -0.858497
v 0.400042 0.278332 -0.799958
v 0.400042 0.278332 -0.400042
v 0.341503 0.251815 -0.341503
v 0.858497 0.251815 -0.858497
v 0.799958 0.278332 -0.799958
v 0.412387 1.453621 -0.787613
v 0.370080 1.476145 -0.829920
v 0.829920 1.476145 -0.370080
v 0.787613 1.453621 -0.412387
v 0.370080 1.476145 -0.370080
v 0.412387 1.453621 -0.412387
v 0.787613 1.453621 -0.787613
v 0.829920 1.476145 -0.829920
v 0.600000 1.981105 -0.600000
vt 0.875000 0.500000
vt 0.875000 0.750000
vt 0.750000 0.625000
vt 0.500620 0.750000
vt 0.561703 0.750000
vt 0.561703 1.000000
vt 0.500620 1.000000
vt 0.500620 0.000000
vt 0.561703 0.000000
vt 0.561703 0.250000
vt 0.500620 0.250000
vt 0.125000 0.500000
vt 0.375000 0.500000
vt 0.375000 0.750000
vt 0.125000 0.750000
vt 0.500620 0.500000
vt 0.561703 0.500000
vt 0.375000 0.250000
vt 0.487520 0.250000
vt 0.487520 0.500000
vt 0.567251 0.250000
vt 0.625000 0.250000
vt 0.625000 0.500000
vt 0.567251 0.500000
vt 0.375000 0.000000
vt 0.487520 0.000000
vt 0.487520 0.750000
vt 0.487520 1.000000
vt 0.375000 1.000000
vt 0.625000 0.750000
vt 0.567251 0.750000
vt 0.625000 1.000000
vt 0.567251 1.000000
vt 0.567251 0.000000
vt 0.625000 0.000000
vn -0.0000 0.5140 -0.8578
vn -0.9999 0.0105 0.0000
vn 0.0000 0.0105 -0.9999
vn 0.0000 -1.0000 0.0000
vn 0.0000 0.0105 0.9999
vn 0.9999 0.0105 0.0000
vn 0.9980 0.0631 -0.0000
vn 0.9973 0.0738 -0.0000
vn 0.0000 0.0631 -0.9980
vn -0.9980 0.0631 0.0000
vn 0.0000 0.0738 0.9973
vn -0.9973 0.0738 0.0000
vn 0.4126 0.9109 -0.0000
vn 0.0000 0.9109 0.4126
vn 0.0000 0.9109 -0.4126
vn -0.4126 0.9109 0.0000
vn 0.0000 0.0631 0.9980
vn 0.4699 -0.8827 0.0000
vn 0.0000 -0.8827 0.4699
vn -0.0000 -0.8827 -0.4699
vn -0.4699 -0.8827 0.0000
vn -0.0000 0.0738 -0.9973
vn 0.0000 0.5140 0.8578
vn 0.8578 0.5140 -0.0000
vn -0.8578 0.5140 0.0000
usemtl Material
s off
f 87/109/58 89/110/58 107/111/58
f 95/112/59 104/113/59 99/114/59 94/115/59
f 94/116/60 99/117/60 105/118/60 98/119/60
f 88/120/61 84/121/61 86/122/61 90/123/61
f 91/124/62 102/125/62 104/113/62 95/112/62
f 98/119/63 105/118/63 102/125/63 91/124/63
f 88/126/64 97/127/64 92/128/64 84/121/64
f 106/129/65 87/130/65 83/131/65 101/132/65
f 90/133/66 93/134/66 97/127/66 88/126/66
f 86/122/67 96/135/67 93/136/67 90/137/67
f 101/132/68 83/131/68 85/138/68 103/139/68
f 103/139/69 85/138/69 89/140/69 100/141/69
f 98/119/70 91/124/70 92/128/70 97/127/70
f 91/124/71 95/112/71 96/135/71 92/128/71
f 94/116/72 98/119/72 97/127/72 93/134/72
f 95/112/73 94/115/73 93/136/73 96/135/73
f 84/121/74 92/128/74 96/135/74 86/122/74
f 106/129/75 101/132/75 102/125/75 105/118/75
f 101/132/76 103/139/76 104/113/76 102/125/76
f 100/142/77 106/129/77 105/118/77 99/117/77
f 103/139/78 100/141/78 99/114/78 104/113/78
f 100/142/79 89/143/79 87/130/79 106/129/79
f 85/138/80 83/131/80 107/111/80
f 83/131/81 87/109/81 107/111/81
f 89/110/82 85/138/82 107/111/82
o Castle_Tower_a_Cube.005
v 0.819688 1.614464 0.819687
v 0.874430 0.000000 0.874430
v 0.380313 1.614464 0.819687
v 0.325570 0.000000 0.874430
v 0.819687 1.614464 0.380312
v 0.874430 0.000000 0.325570
v 0.380313 1.614464 0.380313
v 0.325570 0.000000 0.325570
v 0.799958 0.278332 0.799958
v 0.858497 0.251815 0.858497
v 0.341503 0.251815 0.341503
v 0.400042 0.278332 0.400042
v 0.400042 0.278332 0.799958
v 0.341503 0.251815 0.858497
v 0.858497 0.251815 0.341503
v 0.799958 0.278332 0.400042
v 0.412387 1.453621 0.412387
v 0.370080 1.476145 0.370080
v 0.829920 1.476145 0.829920
v 0.787613 1.453621 0.787613
v 0.370080 1.476145 0.829920
v 0.412387 1.453621 0.787613
v 0.787613 1.453621 0.412387
v 0.829920 1.476145 0.370080
v 0.600000 1.981105 0.600000
vt 0.875000 0.500000
vt 0.875000 0.750000
vt 0.750000 0.625000
vt 0.500620 0.750000
vt 0.561703 0.750000
vt 0.561703 1.000000
vt 0.500620 1.000000
vt 0.500620 0.000000
vt 0.561703 0.000000
vt 0.561703 0.250000
vt 0.500620 0.250000
vt 0.125000 0.500000
vt 0.375000 0.500000
vt 0.375000 0.750000
vt 0.125000 0.750000
vt 0.500620 0.500000
vt 0.561703 0.500000
vt 0.375000 0.250000
vt 0.487520 0.250000
vt 0.487520 0.500000
vt 0.567251 0.250000
vt 0.625000 0.250000
vt 0.625000 0.500000
vt 0.567251 0.500000
vt 0.375000 0.000000
vt 0.487520 0.000000
vt 0.487520 0.750000
vt 0.487520 1.000000
vt 0.375000 1.000000
vt 0.625000 0.750000
vt 0.567251 0.750000
vt 0.625000 1.000000
vt 0.567251 1.000000
vt 0.567251 0.000000
vt 0.625000 0.000000
vn 0.0000 0.5140 -0.8578
vn -0.9999 0.0105 0.0000
vn -0.0000 0.0105 -0.9999
vn 0.0000 -1.0000 0.0000
vn 0.0000 0.0105 0.9999
vn 0.9999 0.0105 0.0000
vn 0.9980 0.0631 -0.0000
vn 0.9973 0.0738 -0.0000
vn 0.0000 0.0631 -0.9980
vn -0.9980 0.0631 0.0000
vn 0.0000 0.0738 0.9973
vn -0.9973 0.0738 0.0000
vn 0.4126 0.9109 0.0000
vn 0.0000 0.9109 0.4126
vn -0.0000 0.9109 -0.4126
vn -0.4126 0.9109 0.0000
vn 0.0000 0.0631 0.9980
vn 0.4699 -0.8827 -0.0000
vn 0.0000 -0.8827 0.4699
vn -0.0000 -0.8827 -0.4699
vn -0.4699 -0.8827 0.0000
vn -0.0000 0.0738 -0.9973
vn 0.0000 0.5140 0.8578
vn 0.8578 0.5140 0.0000
vn -0.8578 0.5140 0.0000
usemtl Material
s off
f 112/144/83 114/145/83 132/146/83
f 120/147/84 129/148/84 124/149/84 119/150/84
f 119/151/85 124/152/85 130/153/85 123/154/85
f 113/155/86 109/156/86 111/157/86 115/158/86
f 116/159/87 127/160/87 129/148/87 120/147/87
f 123/154/88 130/153/88 127/160/88 116/159/88
f 113/161/89 122/162/89 117/163/89 109/156/89
f 131/164/90 112/165/90 108/166/90 126/167/90
f 115/168/91 118/169/91 122/162/91 113/161/91
f 111/157/92 121/170/92 118/171/92 115/172/92
f 126/167/93 108/166/93 110/173/93 128/174/93
f 128/174/94 110/173/94 114/175/94 125/176/94
f 123/154/95 116/159/95 117/163/95 122/162/95
f 116/159/96 120/147/96 121/170/96 117/163/96
f 119/151/97 123/154/97 122/162/97 118/169/97
f 120/147/98 119/150/98 118/171/98 121/170/98
f 109/156/99 117/163/99 121/170/99 111/157/99
f 131/164/100 126/167/100 127/160/100 130/153/100
f 126/167/101 128/174/101 129/148/101 127/160/101
f 125/177/102 131/164/102 130/153/102 124/152/102
f 128/174/103 125/176/103 124/149/103 129/148/103
f 125/177/104 114/178/104 112/165/104 131/164/104
f 110/173/105 108/166/105 132/146/105
f 108/166/106 112/144/106 132/146/106
f 114/145/107 110/173/107 132/146/107
o Castle_Drawbridge_Cube.006
v 0.440044 0.220971 -0.200093
v 0.426029 0.176372 -0.200093
v 0.995805 0.046331 -0.200093
v 0.981790 0.001732 -0.200093
v 0.440044 0.220971 0.200093
v 0.426030 0.176372 0.200093
v 0.995805 0.046331 0.200093
v 0.981790 0.001732 0.200093
vt 0.375000 0.000000
vt 0.375000 0.250000
vt 0.625000 0.250000
vt 0.625000 0.000000
vt 0.375000 0.500000
vt 0.625000 0.500000
vt 0.375000 0.750000
vt 0.625000 0.750000
vt 0.375000 1.000000
vt 0.625000 1.000000
vt 0.125000 0.500000
vt 0.125000 0.750000
vt 0.875000 0.750000
vt 0.875000 0.500000
vn -0.0000 -0.0000 -1.0000
vn 0.9540 -0.2998 0.0000
vn 0.0000 0.0000 1.0000
vn -0.9540 0.2998 0.0000
vn 0.2998 0.9540 -0.0000
vn -0.2998 -0.9540 0.0000
usemtl None
s off
f 133/179/108 135/180/108 136/181/108 134/182/108
f 135/180/109 139/183/109 140/184/109 136/181/109
f 139/183/110 137/185/110 138/186/110 140/184/110
f 137/185/111 133/187/111 134/188/111 138/186/111
f 135/189/112 133/190/112 137/185/112 139/183/112
f 140/184/113 138/186/113 134/191/113 136/192/113
