# Blender v2.81 (sub 16) OBJ File: 'TerrainTileCubes.blend'
# www.blender.org
o testcube_base_Cube
v 0.850712 1.945824 -0.850712
v 0.850712 1.945824 0.850712
v -0.850712 1.945824 -0.850712
v -0.850712 1.945824 0.850712
v 0.987833 1.999986 0.987833
v -0.987833 1.999986 0.987833
v 0.987833 1.999986 -0.987833
v -0.987833 1.999986 -0.987833
v 0.870525 2.000000 0.870525
v 0.858210 1.989615 0.858210
v -0.858210 1.989615 0.858210
v -0.870525 2.000000 0.870525
v 0.870525 2.000000 -0.870525
v 0.858210 1.989615 -0.858210
v -0.858210 1.989615 -0.858210
v -0.870525 2.000000 -0.870525
v 0.977498 0.000000 -1.000000
v 1.000000 0.000000 -0.977498
v 1.000000 0.000000 0.977498
v 0.977498 0.000000 1.000000
v -1.000000 0.000000 -0.977498
v -0.977498 0.000000 -1.000000
v -0.977498 0.000000 1.000000
v -1.000000 0.000000 0.977498
v 0.977498 1.987818 1.000000
v 1.000000 1.987818 0.977498
v -1.000000 1.987818 0.977498
v -0.977498 1.987818 1.000000
v 1.000000 1.987818 -0.977498
v 0.977498 1.987818 -1.000000
v -0.977498 1.987818 -1.000000
v -1.000000 1.987818 -0.977498
v -0.092592 2.207562 0.136886
v -0.092592 3.416611 0.136886
v -0.092592 2.207562 -0.136886
v -0.092592 3.416611 -0.136886
v 0.092592 2.207562 0.136886
v 0.092592 3.416611 0.136886
v 0.092592 2.207562 -0.136886
v 0.092592 3.416611 -0.136886
v -0.092592 3.180239 0.136886
v -0.092592 3.180239 -0.136886
v 0.092592 3.180239 -0.136886
v 0.092592 3.180239 0.136886
v -0.092702 3.180239 0.451834
v -0.092702 3.416611 0.451834
v 0.092482 3.416611 0.451834
v 0.092482 3.180239 0.451834
v -0.092592 3.416611 -0.447681
v 0.092592 3.416611 -0.447681
v -0.092592 3.180239 -0.447681
v 0.092592 3.180239 -0.447681
vt 0.643661 0.518661
vt 0.856339 0.518661
vt 0.856339 0.731339
vt 0.643661 0.731339
vt 0.641184 0.733816
vt 0.858816 0.733816
vt 0.873477 0.748477
vt 0.626523 0.748477
vt 0.642724 0.517724
vt 0.857276 0.517724
vt 0.375000 0.502813
vt 0.623477 0.502813
vt 0.623477 0.747187
vt 0.375000 0.747187
vt 0.375000 0.002813
vt 0.623477 0.002813
vt 0.623477 0.247187
vt 0.375000 0.247187
vt 0.626523 0.501523
vt 0.642724 0.732276
vt 0.125000 0.502813
vt 0.127813 0.500000
vt 0.372187 0.500000
vt 0.372187 0.750000
vt 0.127813 0.750000
vt 0.125000 0.747187
vt 0.641184 0.516184
vt 0.857276 0.732276
vt 0.858816 0.516184
vt 0.873477 0.501523
vt 0.875000 0.502813
vt 0.875000 0.747187
vt 0.872187 0.750000
vt 0.627813 0.750000
vt 0.627813 0.500000
vt 0.872187 0.500000
vt 0.375000 0.752813
vt 0.623477 0.752813
vt 0.623477 0.997187
vt 0.375000 0.997187
vt 0.625938 0.749062
vt 0.874062 0.749062
vt 0.625352 0.500938
vt 0.874062 0.500938
vt 0.375000 0.497187
vt 0.623477 0.497187
vt 0.375000 0.000000
vt 0.623477 0.000000
vt 0.623477 0.252813
vt 0.375000 0.252813
vt 0.500000 0.000000
vt 0.625000 0.000000
vt 0.625000 0.250000
vt 0.500000 0.250000
vt 0.500000 0.500000
vt 0.500000 0.250000
vt 0.500000 0.500000
vt 0.625000 0.500000
vt 0.625000 0.750000
vt 0.500000 0.750000
vt 0.500000 1.000000
vt 0.500000 0.750000
vt 0.500000 1.000000
vt 0.125000 0.500000
vt 0.375000 0.500000
vt 0.375000 0.750000
vt 0.125000 0.750000
vt 0.875000 0.500000
vt 0.875000 0.750000
vt 0.375000 1.000000
vt 0.375000 0.250000
vt 0.375000 0.000000
vt 0.625000 0.750000
vt 0.625000 1.000000
vt 0.500000 0.000000
vt 0.625000 0.000000
vt 0.875000 0.750000
vt 0.625000 0.250000
vt 0.625000 0.500000
vt 0.875000 0.500000
vn 0.0000 1.0000 0.0000
vn 0.0000 1.0000 0.0001
vn 0.0000 0.1688 0.9857
vn 1.0000 0.0000 0.0000
vn -1.0000 0.0000 0.0000
vn 0.7071 0.7071 0.0000
vn -0.9857 0.1688 0.0000
vn 0.0000 -1.0000 0.0000
vn 0.0001 1.0000 0.0000
vn 0.9857 0.1688 0.0000
vn -0.0001 1.0000 0.0000
vn 0.0000 1.0000 -0.0001
vn -0.7071 0.7071 0.0000
vn 0.0000 0.7071 0.7071
vn 0.0000 0.7071 -0.7071
vn 0.0000 0.0000 1.0000
vn 0.0000 0.7645 -0.6447
vn -0.6447 0.7644 0.0000
vn 0.6447 0.7644 0.0000
vn 0.0000 0.7645 0.6447
vn 0.0000 0.1688 -0.9857
vn 0.7031 0.1059 0.7031
vn -0.7031 0.1059 0.7031
vn 0.7031 0.1059 -0.7031
vn -0.7031 0.1059 -0.7031
vn 0.7071 0.0000 -0.7071
vn 0.7071 0.0000 0.7071
vn -0.7071 0.0000 0.7071
vn -0.7071 0.0000 -0.7071
vn 0.0000 0.0000 -1.0000
vn -1.0000 0.0000 -0.0003
vn 1.0000 0.0000 0.0003
s off
f 1/1/1 3/2/1 4/3/1 2/4/1
f 9/5/2 12/6/2 6/7/2 5/8/2
f 3/2/3 1/1/3 14/9/3 15/10/3
f 18/11/4 29/12/4 26/13/4 19/14/4
f 24/15/5 27/16/5 32/17/5 21/18/5
f 7/19/6 5/8/6 26/13/6 29/12/6
f 1/1/7 2/4/7 10/20/7 14/9/7
f 21/21/8 22/22/8 17/23/8 18/11/8 19/14/8 20/24/8 23/25/8 24/26/8
f 13/27/9 9/5/9 5/8/9 7/19/9
f 4/3/10 3/2/10 15/10/10 11/28/10
f 12/6/11 16/29/11 8/30/11 6/7/11
f 16/29/12 13/27/12 7/19/12 8/30/12
f 6/7/13 8/30/13 32/31/13 27/32/13
f 5/8/14 6/7/14 28/33/14 25/34/14
f 8/30/15 7/19/15 30/35/15 31/36/15
f 20/37/16 25/38/16 28/39/16 23/40/16
f 10/20/17 11/28/17 12/6/17 9/5/17
f 14/9/18 10/20/18 9/5/18 13/27/18
f 11/28/19 15/10/19 16/29/19 12/6/19
f 15/10/20 14/9/20 13/27/20 16/29/20
f 2/4/21 4/3/21 11/28/21 10/20/21
f 25/34/22 26/41/22 5/8/22
f 27/32/23 28/42/23 6/7/23
f 29/12/24 30/43/24 7/19/24
f 31/36/25 32/44/25 8/30/25
f 17/45/26 30/46/26 29/12/26 18/11/26
f 25/38/27 20/37/27 19/14/27 26/13/27
f 27/16/28 24/15/28 23/47/28 28/48/28
f 31/49/29 22/50/29 21/18/29 32/17/29
f 22/50/30 31/49/30 30/46/30 17/45/30
f 41/51/5 34/52/5 36/53/5 42/54/5
f 43/55/8 42/54/8 51/56/8 52/57/8
f 43/55/4 40/58/4 38/59/4 44/60/4
f 41/61/8 44/60/8 48/62/8 45/63/8
f 35/64/8 39/65/8 37/66/8 33/67/8
f 40/58/1 36/68/1 34/69/1 38/59/1
f 37/66/16 44/60/16 41/61/16 33/70/16
f 39/65/4 43/55/4 44/60/4 37/66/4
f 35/71/30 42/54/30 43/55/30 39/65/30
f 33/72/5 41/51/5 42/54/5 35/71/5
f 48/62/16 47/73/16 46/74/16 45/63/16
f 34/52/31 41/51/31 45/75/31 46/76/31
f 44/60/32 38/59/32 47/73/32 48/62/32
f 38/59/1 34/69/1 46/77/1 47/73/1
f 51/56/30 49/78/30 50/79/30 52/57/30
f 36/68/1 40/58/1 50/79/1 49/80/1
f 40/58/4 43/55/4 52/57/4 50/79/4
f 42/54/5 36/53/5 49/78/5 51/56/5
