# Blender v2.81 (sub 16) OBJ File: 'Tile Proxies.blend'
# www.blender.org
o tile_terrain_ramp_wedge_b_h15_tile_terrain_ground_h10_Cube.007
v -1.000000 0.035022 -1.000000
v -1.000000 2.800000 -1.000000
v 1.000000 1.800000 -1.000000
v 1.000000 0.035022 -1.000000
v -0.964978 -0.000000 0.964978
v -1.000000 0.035022 1.000000
v -0.964978 0.000000 -0.964978
v 0.964978 -0.000000 0.964978
v 1.000000 0.035022 1.000000
v 0.964978 0.000000 -0.964978
v 1.000000 1.900000 -1.000000
v 1.000000 2.000000 -1.000000
v 1.000000 3.000000 1.000000
v 1.000000 2.899997 1.000000
v 0.945436 1.866087 -0.947213
v -0.945436 2.829036 -0.947213
v -1.000000 2.900003 1.000000
v -1.000000 3.000000 1.000000
v -1.000000 3.000000 -1.000000
v -1.000000 2.900000 -1.000000
v 1.000000 2.800009 1.000000
v -0.945436 2.843865 0.964017
v -1.000000 2.799991 1.000000
v 0.945436 2.829035 0.947213
vt 0.974363 0.504645
vt 0.974363 0.931548
vt 0.507557 0.931548
vt 0.507557 0.504645
vt 0.982834 0.955735
vt 0.982834 0.979922
vt 0.499086 0.979922
vt 0.499086 0.955735
vt 0.516359 0.942968
vt 0.965561 0.942968
vt 0.507557 0.496174
vt 0.974363 0.496174
vt 0.974363 0.504645
vt 0.507557 0.504645
vt 0.982834 0.955735
vt 0.982834 0.979922
vt 0.499086 0.979922
vt 0.499086 0.955735
vt 0.507557 0.496174
vt 0.974363 0.496174
vt 0.499086 0.979922
vt 0.499086 0.955735
vt 0.982834 0.955735
vt 0.982834 0.979922
vt 0.507557 0.496174
vt 0.974363 0.496174
vt 0.974363 0.504645
vt 0.507557 0.504645
vt 0.965983 0.942968
vt 0.515937 0.942968
vt 0.265986 0.266539
vt 0.034391 0.266539
vt 0.034391 0.034944
vt 0.265986 0.034944
vt 0.965561 0.942968
vt 0.982834 0.955735
vt 0.499086 0.955735
vt 0.516359 0.942968
vt 0.965983 0.942968
vt 0.515937 0.942968
vt 0.974363 0.504645
vt 0.974363 0.931548
vt 0.507557 0.931547
vt 0.507557 0.504645
vt 0.974363 0.931548
vt 0.507557 0.931548
vt 0.974363 0.931547
vt 0.507557 0.931548
vt 0.507557 0.496174
vt 0.974363 0.496174
vt 0.982834 0.979922
vt 0.499086 0.979922
vt 0.479373 0.500576
vt 0.479373 0.954136
vt 0.025813 0.954136
vt 0.025813 0.500576
vn -0.0000 0.0000 -1.0000
vn 0.1952 0.3869 -0.9012
vn 0.0947 0.1876 -0.9777
vn 1.0000 0.0000 0.0000
vn 0.3510 0.6957 -0.6268
vn -0.7071 -0.7071 -0.0000
vn -1.0000 0.0000 0.0000
vn 0.0000 -0.7071 -0.7071
vn 0.0000 -0.7071 0.7071
vn -0.5775 -0.7180 -0.3884
vn -0.6409 -0.7131 -0.2841
vn 0.2277 -0.9484 -0.2206
vn 0.2179 -0.9483 -0.2305
vn -0.4286 -0.7348 0.5257
vn -0.5129 -0.7416 0.4324
vn 0.0000 -1.0000 -0.0000
vn 0.3825 -0.6881 0.6166
vn 0.2924 -0.6718 0.6806
vn 0.9756 0.1960 -0.0988
vn 0.8956 0.3972 -0.2002
vn 0.0000 -0.0000 1.0000
vn 0.0022 0.2936 0.9559
vn 0.0021 0.2863 0.9581
vn -0.9225 0.3859 -0.0015
vn -0.9437 0.3307 -0.0013
vn 0.6142 0.7047 -0.3552
vn 0.7071 -0.7071 -0.0000
vn 0.0057 0.7728 0.6346
vn -0.5552 0.8317 -0.0032
vn 0.2270 0.9470 -0.2270
vn 0.4082 0.8165 -0.4082
vn 0.0000 1.0000 0.0000
s 1
f 1/1/1 2/2/2 3/3/3 4/4/1
f 11/5/4 12/6/4 13/7/4 14/8/4
f 15/9/5 3/3/3 2/2/2 16/10/5
f 7/11/6 5/12/6 6/13/6 1/14/6
f 17/15/7 18/16/7 19/17/7 20/18/7
f 10/19/8 7/20/8 1/1/8 4/4/8
f 12/21/1 11/22/1 20/23/1 19/24/1
f 5/25/9 8/26/9 9/27/9 6/28/9
f 16/10/10 20/23/11 11/22/12 15/9/13
f 22/29/14 17/15/15 20/18/11 16/30/10
f 8/31/16 5/32/16 7/33/16 10/34/16
f 24/35/17 14/36/18 17/37/15 22/38/14
f 15/39/13 11/5/12 14/8/18 24/40/17
f 4/41/4 3/42/19 21/43/20 9/44/4
f 9/27/21 21/45/22 23/46/23 6/28/21
f 6/13/7 23/47/24 2/48/25 1/14/7
f 3/42/19 15/39/26 24/40/26 21/43/20
f 8/49/27 10/50/27 4/41/27 9/44/27
f 21/45/22 24/35/28 22/38/28 23/46/23
f 13/51/21 18/52/21 17/37/21 14/36/21
f 23/47/24 22/29/29 16/30/29 2/48/25
f 13/53/30 12/54/31 19/55/30
f 18/56/32 13/53/30 19/55/30
