# Blender v2.81 (sub 16) OBJ File: 'Tile Proxies.blend'
# www.blender.org
o tile_terrain_ramp_wedge_b_h20_tile_terrain_ground_h10_Cube.008
v -1.000000 0.035022 -1.000000
v -1.000000 3.800000 -1.000000
v 1.000000 2.800000 -1.000000
v 1.000000 0.035022 -1.000000
v -0.964978 -0.000000 0.964978
v -1.000000 0.035022 1.000000
v -0.964978 0.000000 -0.964978
v 0.964978 -0.000000 0.964978
v 1.000000 0.035022 1.000000
v 0.964978 0.000000 -0.964978
v 1.000000 2.900000 -1.000000
v 1.000000 3.000000 -1.000000
v 1.000000 3.999999 1.000000
v 1.000000 3.899997 1.000000
v 0.945436 2.858604 -0.947213
v -0.945436 3.849585 -0.947213
v -1.000000 3.900003 1.000000
v -1.000000 4.000000 1.000000
v -1.000000 4.000000 -1.000000
v -1.000000 3.900001 -1.000000
v 1.000000 3.800009 1.000000
v -0.945436 3.840695 0.964017
v -1.000000 3.799991 1.000000
v 0.945436 3.829099 0.947213
vt 0.974363 0.504645
vt 0.974363 0.931548
vt 0.507557 0.931548
vt 0.507557 0.504645
vt 0.982834 0.955735
vt 0.982834 0.979922
vt 0.499086 0.979922
vt 0.499086 0.955735
vt 0.516359 0.942968
vt 0.965561 0.942968
vt 0.507557 0.496174
vt 0.974363 0.496174
vt 0.974363 0.504645
vt 0.507557 0.504645
vt 0.982834 0.955735
vt 0.982834 0.979922
vt 0.499086 0.979922
vt 0.499086 0.955735
vt 0.507557 0.496174
vt 0.974363 0.496174
vt 0.499086 0.979922
vt 0.499086 0.955735
vt 0.982834 0.955735
vt 0.982834 0.979922
vt 0.507557 0.496174
vt 0.974363 0.496174
vt 0.974363 0.504645
vt 0.507557 0.504645
vt 0.965983 0.942968
vt 0.515937 0.942968
vt 0.265986 0.266539
vt 0.034391 0.266539
vt 0.034391 0.034944
vt 0.265986 0.034944
vt 0.965561 0.942968
vt 0.982834 0.955735
vt 0.499086 0.955735
vt 0.516359 0.942968
vt 0.965983 0.942968
vt 0.515937 0.942968
vt 0.974363 0.504645
vt 0.974363 0.931548
vt 0.507557 0.931547
vt 0.507557 0.504645
vt 0.974363 0.931548
vt 0.507557 0.931548
vt 0.974363 0.931547
vt 0.507557 0.931548
vt 0.507557 0.496174
vt 0.974363 0.496174
vt 0.982834 0.979922
vt 0.499086 0.979922
vt 0.479373 0.500576
vt 0.479373 0.954136
vt 0.025813 0.954136
vt 0.025813 0.500576
vn 0.0000 0.0000 -1.0000
vn 0.1966 0.3843 -0.9020
vn 0.0892 0.1744 -0.9806
vn 1.0000 0.0000 0.0000
vn 0.3365 0.6577 -0.6740
vn -0.7071 -0.7071 -0.0000
vn -1.0000 0.0000 0.0000
vn 0.0000 -0.7071 -0.7071
vn 0.0000 -0.7071 0.7071
vn -0.5595 -0.7524 -0.3476
vn -0.6020 -0.7512 -0.2707
vn 0.2276 -0.9549 -0.1909
vn 0.2195 -0.9552 -0.1983
vn -0.3969 -0.7538 0.5238
vn -0.4729 -0.7674 0.4330
vn 0.0000 -1.0000 -0.0000
vn 0.4001 -0.6760 0.6188
vn 0.3060 -0.6611 0.6851
vn 0.9740 0.2022 -0.1023
vn 0.8865 0.4129 -0.2089
vn 0.0000 -0.0000 1.0000
vn 0.0019 0.3001 0.9539
vn 0.0018 0.2870 0.9579
vn -0.9381 0.3464 0.0008
vn -0.9479 0.3186 0.0007
vn 0.5827 0.7251 -0.3669
vn 0.7071 -0.7071 -0.0000
vn 0.0050 0.7861 0.6181
vn -0.6376 0.7703 0.0018
vn 0.2270 0.9470 -0.2270
vn 0.4082 0.8165 -0.4082
vn 0.0000 1.0000 0.0000
s 1
f 1/1/1 2/2/2 3/3/3 4/4/1
f 11/5/4 12/6/4 13/7/4 14/8/4
f 15/9/5 3/3/3 2/2/2 16/10/5
f 7/11/6 5/12/6 6/13/6 1/14/6
f 17/15/7 18/16/7 19/17/7 20/18/7
f 10/19/8 7/20/8 1/1/8 4/4/8
f 12/21/1 11/22/1 20/23/1 19/24/1
f 5/25/9 8/26/9 9/27/9 6/28/9
f 16/10/10 20/23/11 11/22/12 15/9/13
f 22/29/14 17/15/15 20/18/11 16/30/10
f 8/31/16 5/32/16 7/33/16 10/34/16
f 24/35/17 14/36/18 17/37/15 22/38/14
f 15/39/13 11/5/12 14/8/18 24/40/17
f 4/41/4 3/42/19 21/43/20 9/44/4
f 9/27/21 21/45/22 23/46/23 6/28/21
f 6/13/7 23/47/24 2/48/25 1/14/7
f 3/42/19 15/39/26 24/40/26 21/43/20
f 8/49/27 10/50/27 4/41/27 9/44/27
f 21/45/22 24/35/28 22/38/28 23/46/23
f 13/51/21 18/52/21 17/37/21 14/36/21
f 23/47/24 22/29/29 16/30/29 2/48/25
f 13/53/30 12/54/31 19/55/30
f 18/56/32 13/53/30 19/55/30
