# Blender v2.81 (sub 16) OBJ File: 'Tile Proxies.blend'
# www.blender.org
o tile_terrain_ramp_wedge_a_h15_tile_terrain_ground_h10_Cube.005
v -1.000000 0.035022 -1.000000
v -1.000000 1.800000 -1.000000
v 1.000000 1.800000 -1.000000
v 1.000000 0.035022 -1.000000
v -0.964978 -0.000000 0.964978
v -1.000000 0.035022 1.000000
v -0.964978 0.000000 -0.964978
v 0.964978 -0.000000 0.964978
v 1.000000 0.035022 1.000000
v 0.964978 0.000000 -0.964978
v 1.000000 1.900000 -1.000000
v 1.000000 2.000000 -1.000000
v 1.000000 2.000000 1.000000
v 1.000000 1.900000 1.000000
v 0.945436 1.857590 -0.947213
v -0.945436 1.857590 -0.947213
v -1.000000 2.899795 1.000000
v -1.000000 3.000000 1.000000
v -1.000000 2.000000 -1.000000
v -1.000000 1.900000 -1.000000
v 1.000000 1.800000 1.000000
v -0.945436 2.832581 0.964017
v -1.000000 2.800000 1.000000
v 0.945436 1.857589 0.947213
vt 0.974363 0.504645
vt 0.974363 0.931548
vt 0.507557 0.931548
vt 0.507557 0.504645
vt 0.982834 0.955735
vt 0.982834 0.979922
vt 0.499086 0.979922
vt 0.499086 0.955735
vt 0.516359 0.942968
vt 0.965561 0.942968
vt 0.507557 0.496174
vt 0.974363 0.496174
vt 0.974363 0.504645
vt 0.507557 0.504645
vt 0.982834 0.955735
vt 0.982834 0.979922
vt 0.499086 0.979922
vt 0.499086 0.955735
vt 0.507557 0.496174
vt 0.974363 0.496174
vt 0.499086 0.979922
vt 0.499086 0.955735
vt 0.982834 0.955735
vt 0.982834 0.979922
vt 0.507557 0.496174
vt 0.974363 0.496174
vt 0.974363 0.504645
vt 0.507557 0.504645
vt 0.965983 0.942968
vt 0.515937 0.942968
vt 0.265986 0.266539
vt 0.034391 0.266539
vt 0.034391 0.034944
vt 0.265986 0.034944
vt 0.965561 0.942968
vt 0.982834 0.955735
vt 0.499086 0.955735
vt 0.516359 0.942968
vt 0.965983 0.942968
vt 0.515937 0.942968
vt 0.974363 0.504645
vt 0.974363 0.931548
vt 0.507557 0.931547
vt 0.507557 0.504645
vt 0.974363 0.931548
vt 0.507557 0.931548
vt 0.974363 0.931547
vt 0.507557 0.931548
vt 0.507557 0.496174
vt 0.974363 0.496174
vt 0.982834 0.979922
vt 0.499086 0.979922
vt 0.479373 0.500576
vt 0.479373 0.954136
vt 0.025813 0.954136
vt 0.025813 0.500576
vn 0.0000 0.0000 -1.0000
vn 0.0000 0.2740 -0.9617
vn 1.0000 0.0000 0.0000
vn 0.0000 0.6757 -0.7372
vn -0.7071 -0.7071 -0.0000
vn -1.0000 0.0000 0.0000
vn 0.0000 -0.7071 -0.7071
vn 0.0000 -0.7071 0.7071
vn -0.3938 -0.8880 -0.2374
vn -0.4980 -0.8624 -0.0908
vn 0.3463 -0.8730 -0.3434
vn 0.3394 -0.8729 -0.3505
vn -0.5081 -0.6470 0.5685
vn -0.5587 -0.6515 0.5132
vn 0.0000 -1.0000 -0.0000
vn 0.2379 -0.8732 0.4255
vn 0.1134 -0.8442 0.5238
vn 0.9588 0.2839 0.0000
vn 0.0000 -0.0000 1.0000
vn 0.0896 0.1751 0.9805
vn 0.1829 0.3572 0.9159
vn -0.8581 0.4583 -0.2314
vn -0.9724 0.2081 -0.1051
vn 0.7259 0.6878 0.0000
vn 0.7071 -0.7071 -0.0000
vn 0.3380 0.6603 0.6707
vn -0.5556 0.7422 -0.3748
vn 0.2270 0.9470 -0.2270
vn 0.0000 1.0000 0.0000
vn 0.4082 0.8165 -0.4082
s 1
f 1/1/1 2/2/2 3/3/2 4/4/1
f 11/5/3 12/6/3 13/7/3 14/8/3
f 15/9/4 3/3/2 2/2/2 16/10/4
f 7/11/5 5/12/5 6/13/5 1/14/5
f 17/15/6 18/16/6 19/17/6 20/18/6
f 10/19/7 7/20/7 1/1/7 4/4/7
f 12/21/1 11/22/1 20/23/1 19/24/1
f 5/25/8 8/26/8 9/27/8 6/28/8
f 16/10/9 20/23/10 11/22/11 15/9/12
f 22/29/13 17/15/14 20/18/10 16/30/9
f 8/31/15 5/32/15 7/33/15 10/34/15
f 24/35/16 14/36/17 17/37/14 22/38/13
f 15/39/12 11/5/11 14/8/17 24/40/16
f 4/41/3 3/42/18 21/43/18 9/44/3
f 9/27/19 21/45/20 23/46/21 6/28/19
f 6/13/6 23/47/22 2/48/23 1/14/6
f 3/42/18 15/39/24 24/40/24 21/43/18
f 8/49/25 10/50/25 4/41/25 9/44/25
f 21/45/20 24/35/26 22/38/26 23/46/21
f 13/51/19 18/52/19 17/37/19 14/36/19
f 23/47/22 22/29/27 16/30/27 2/48/23
f 13/53/28 12/54/29 19/55/28
f 18/56/30 13/53/28 19/55/28
