# Blender v2.81 (sub 16) OBJ File: 'Natural Env Proxies.blend'
# www.blender.org
o Cobblestones_01_Cube.011
v -0.366077 -0.025341 0.683116
v -0.690140 0.053678 0.518755
v -0.672386 -0.017019 0.690639
v -0.665927 0.059401 0.518120
v -0.377149 0.000500 0.330330
v -0.370723 -0.014065 0.506395
v -0.704369 0.003402 0.345569
v -0.689475 -0.008435 0.518509
v -0.390818 0.041500 0.655872
v -0.366077 0.035600 0.683116
v -0.650167 0.049108 0.662666
v -0.672496 0.044273 0.690680
v -0.402297 0.068365 0.359384
v -0.377336 0.062543 0.330399
v -0.679862 0.070940 0.372900
v -0.705241 0.065530 0.345891
v -0.395671 0.053836 0.507301
v -0.370829 0.047784 0.506434
v -0.519053 -0.020759 0.686812
v -0.543231 0.007936 0.338862
v -0.520029 0.045720 0.659098
v -0.519053 0.040310 0.686812
v -0.542774 0.074311 0.366767
v -0.543687 0.070046 0.339030
v -0.531769 0.058425 0.513068
v -0.322693 -0.009036 0.467554
v -0.130445 0.064239 0.096954
v -0.320913 -0.019447 0.106542
v -0.130696 0.070337 0.127132
v 0.056629 -0.007099 0.470542
v -0.133032 -0.009375 0.469048
v 0.059618 0.005579 0.091219
v -0.130451 -0.008165 0.095898
v -0.292537 0.069189 0.437958
v -0.322618 0.063087 0.467562
v -0.291476 0.056595 0.140411
v -0.320986 0.051387 0.108800
v 0.027106 0.074320 0.440476
v 0.056704 0.065527 0.470550
v 0.029624 0.085559 0.120833
v 0.059693 0.079345 0.091227
v -0.132715 0.069776 0.439217
v -0.132957 0.062851 0.469056
v -0.321606 -0.012532 0.284065
v 0.058123 0.005538 0.280880
v -0.291776 0.064892 0.285694
v -0.321600 0.058990 0.285121
v 0.028365 0.085524 0.280654
v 0.058199 0.079303 0.280889
v -0.131536 0.073995 0.280600
v 0.118180 -0.028984 0.245477
v 0.310511 0.043620 -0.267844
v 0.117667 -0.011065 -0.276883
v 0.312375 0.044206 -0.227707
v 0.531075 -0.042126 0.234952
v 0.326939 -0.047509 0.239662
v 0.506197 -0.029532 -0.260631
v 0.310246 -0.026865 -0.268273
v 0.149917 0.041086 0.203815
v 0.118333 0.041789 0.245432
v 0.147553 0.061732 -0.235507
v 0.117667 0.060638 -0.276883
v 0.508677 0.028120 0.191194
v 0.533135 0.027999 0.234293
v 0.480220 0.042003 -0.220971
v 0.506754 0.040927 -0.259866
v 0.331120 0.021066 0.197063
v 0.328270 0.021522 0.239241
v 0.117667 -0.031145 -0.015628
v 0.533153 -0.041521 -0.023550
v 0.147789 0.040270 -0.015740
v 0.117667 0.039077 -0.015628
v 0.505182 0.029314 -0.023623
v 0.535192 0.028141 -0.023848
v 0.326533 0.018827 -0.020636
v 0.679734 -0.009551 0.490943
v 0.241623 0.039925 0.400901
v 0.244703 -0.026978 0.494575
v 0.276082 0.045655 0.399363
v 0.674380 -0.009396 0.299324
v 0.677057 -0.009396 0.395134
v 0.237756 -0.011879 0.311411
v 0.241437 -0.021184 0.401889
v 0.644964 0.056526 0.476829
v 0.679734 0.052450 0.490943
v 0.279093 0.039018 0.476087
v 0.244968 0.033375 0.493170
v 0.640459 0.058004 0.315278
v 0.674380 0.052690 0.299324
v 0.272697 0.054062 0.324578
v 0.237782 0.049750 0.311271
v 0.642708 0.057455 0.396093
v 0.677057 0.052690 0.395134
v 0.461420 -0.019803 0.497000
v 0.456565 -0.009272 0.299920
v 0.461038 0.046621 0.481613
v 0.461439 0.041157 0.496886
v 0.457048 0.057395 0.314323
v 0.456637 0.052792 0.299139
v 0.459038 0.051553 0.397948
v 0.132582 -0.017366 -0.590802
v -0.086473 0.052434 -0.702511
v -0.086928 -0.010025 -0.605070
v -0.069337 0.057391 -0.701795
v 0.130144 -0.010705 -0.795986
v 0.131869 -0.014930 -0.691837
v -0.085952 -0.009396 -0.799749
v -0.086511 -0.009585 -0.702628
v 0.115996 0.049578 -0.605376
v 0.132938 0.044091 -0.589706
v -0.069509 0.056704 -0.619035
v -0.086858 0.051938 -0.604856
v 0.113530 0.055919 -0.779545
v 0.130246 0.051200 -0.795671
v -0.069116 0.057991 -0.784404
v -0.085952 0.052690 -0.799749
v 0.115134 0.052094 -0.691320
v 0.132115 0.046722 -0.691081
v 0.023255 -0.014451 -0.596620
v 0.021994 -0.009871 -0.798180
v 0.023559 0.052583 -0.611235
v 0.023485 0.047228 -0.595913
v 0.022168 0.057024 -0.782094
v 0.022055 0.052109 -0.797995
v 0.023129 0.054335 -0.695848
v -0.485422 -0.054044 0.019459
v -0.211882 0.057707 -0.525185
v -0.481192 -0.050298 -0.520178
v -0.212603 0.065275 -0.481264
v 0.055955 -0.066836 0.019745
v -0.213972 -0.069442 0.017816
v 0.051140 -0.035236 -0.535128
v -0.211602 -0.045208 -0.524902
v -0.444473 0.049519 -0.018059
v -0.485664 0.047211 0.020289
v -0.440892 0.057473 -0.472832
v -0.481415 0.051720 -0.519393
v 0.013950 0.040042 -0.023031
v 0.056062 0.033586 0.019757
v 0.008208 0.076599 -0.493427
v 0.050331 0.068710 -0.536649
v -0.214159 0.037446 -0.023131
v -0.213975 0.030203 0.018086
v -0.490232 -0.063114 -0.234115
v 0.056243 -0.049232 -0.253176
v -0.448984 0.044446 -0.230665
v -0.491108 0.037530 -0.231799
v 0.013692 0.060967 -0.253852
v 0.056031 0.053209 -0.253698
v -0.215294 0.049083 -0.243657
v 0.117208 -0.025785 0.821952
v -0.108260 0.049286 0.686643
v -0.106057 -0.018105 0.818555
v -0.091081 0.054181 0.686832
v 0.112484 -0.002383 0.558529
v 0.115355 -0.015816 0.690399
v -0.110688 -0.008885 0.554713
v -0.107812 -0.012429 0.686751
v 0.101271 0.038760 0.801583
v 0.117894 0.034432 0.822177
v -0.088415 0.047136 0.798326
v -0.106111 0.042916 0.818596
v 0.095052 0.065096 0.578869
v 0.112405 0.060378 0.558505
v -0.094346 0.058844 0.575251
v -0.111453 0.053280 0.554485
v 0.098913 0.050684 0.690442
v 0.115794 0.045561 0.690539
v 0.006501 -0.024636 0.820565
v 0.000406 -0.005321 0.556474
v 0.007131 0.040751 0.800198
v 0.006866 0.035635 0.820724
v -0.000089 0.062379 0.576927
v -0.000057 0.057159 0.556336
v 0.004375 0.051406 0.688780
v 0.212479 -0.009779 0.522268
v 0.091088 0.028452 0.460792
v 0.091384 -0.010035 0.523145
v 0.110147 0.037348 0.460610
v 0.209877 -0.008044 0.393024
v 0.211318 -0.008842 0.457198
v 0.090504 -0.008971 0.398052
v 0.091046 -0.009522 0.460712
v 0.193554 0.037129 0.503025
v 0.212614 0.028181 0.522436
v 0.110676 0.036815 0.504502
v 0.091467 0.027909 0.523410
v 0.191380 0.038585 0.412833
v 0.209835 0.030008 0.392618
v 0.109493 0.037888 0.416678
v 0.090493 0.029036 0.397931
v 0.192536 0.037882 0.457769
v 0.211365 0.029162 0.457087
v 0.152362 -0.010151 0.524229
v 0.150156 -0.008420 0.394984
v 0.152309 0.036860 0.504466
v 0.152487 0.027783 0.524558
v 0.150468 0.038250 0.414669
v 0.150136 0.029607 0.394736
v 0.151459 0.037569 0.459475
vt 0.750000 0.625000
vt 0.855333 0.625000
vt 0.855334 0.730333
vt 0.750000 0.730333
vt 0.375000 0.625000
vt 0.605333 0.625000
vt 0.605333 0.750000
vt 0.375000 0.750000
vt 0.605333 0.875000
vt 0.375000 0.875000
vt 0.375000 0.125000
vt 0.605333 0.125000
vt 0.605333 0.250000
vt 0.375000 0.250000
vt 0.375000 0.375000
vt 0.605333 0.375000
vt 0.605333 0.500000
vt 0.375000 0.500000
vt 0.855333 0.519667
vt 0.875000 0.500000
vt 0.875000 0.625000
vt 0.750000 0.519667
vt 0.644667 0.519667
vt 0.625000 0.500000
vt 0.750000 0.500000
vt 0.644667 0.625000
vt 0.644667 0.730333
vt 0.875000 0.750000
vt 0.750000 0.750000
vt 0.605333 1.000000
vt 0.375000 1.000000
vt 0.625000 0.750000
vt 0.375000 0.000000
vt 0.605333 0.000000
vt 0.750000 0.625000
vt 0.855333 0.625000
vt 0.855334 0.730333
vt 0.750000 0.730333
vt 0.375000 0.625000
vt 0.605333 0.625000
vt 0.605333 0.750000
vt 0.375000 0.750000
vt 0.605333 0.875000
vt 0.375000 0.875000
vt 0.375000 0.125000
vt 0.605333 0.125000
vt 0.605333 0.250000
vt 0.375000 0.250000
vt 0.375000 0.375000
vt 0.605333 0.375000
vt 0.605333 0.500000
vt 0.375000 0.500000
vt 0.855333 0.519667
vt 0.875000 0.500000
vt 0.875000 0.625000
vt 0.750000 0.519667
vt 0.644667 0.519667
vt 0.625000 0.500000
vt 0.750000 0.500000
vt 0.644667 0.625000
vt 0.644667 0.730333
vt 0.875000 0.750000
vt 0.750000 0.750000
vt 0.605333 1.000000
vt 0.375000 1.000000
vt 0.625000 0.750000
vt 0.375000 0.000000
vt 0.605333 0.000000
vt 0.750000 0.625000
vt 0.855333 0.625000
vt 0.855334 0.730333
vt 0.750000 0.730333
vt 0.375000 0.625000
vt 0.605333 0.625000
vt 0.605333 0.750000
vt 0.375000 0.750000
vt 0.605333 0.875000
vt 0.375000 0.875000
vt 0.375000 0.125000
vt 0.605333 0.125000
vt 0.605333 0.250000
vt 0.375000 0.250000
vt 0.375000 0.375000
vt 0.605333 0.375000
vt 0.605333 0.500000
vt 0.375000 0.500000
vt 0.855333 0.519667
vt 0.875000 0.500000
vt 0.875000 0.625000
vt 0.750000 0.519667
vt 0.644667 0.519667
vt 0.625000 0.500000
vt 0.750000 0.500000
vt 0.644667 0.625000
vt 0.644667 0.730333
vt 0.875000 0.750000
vt 0.750000 0.750000
vt 0.605333 1.000000
vt 0.375000 1.000000
vt 0.625000 0.750000
vt 0.375000 0.000000
vt 0.605333 0.000000
vt 0.750000 0.625000
vt 0.855333 0.625000
vt 0.855334 0.730333
vt 0.750000 0.730333
vt 0.375000 0.625000
vt 0.605333 0.625000
vt 0.605333 0.750000
vt 0.375000 0.750000
vt 0.605333 0.875000
vt 0.375000 0.875000
vt 0.375000 0.125000
vt 0.605333 0.125000
vt 0.605333 0.250000
vt 0.375000 0.250000
vt 0.375000 0.375000
vt 0.605333 0.375000
vt 0.605333 0.500000
vt 0.375000 0.500000
vt 0.855333 0.519667
vt 0.875000 0.500000
vt 0.875000 0.625000
vt 0.750000 0.519667
vt 0.644667 0.519667
vt 0.625000 0.500000
vt 0.750000 0.500000
vt 0.644667 0.625000
vt 0.644667 0.730333
vt 0.875000 0.750000
vt 0.750000 0.750000
vt 0.605333 1.000000
vt 0.375000 1.000000
vt 0.625000 0.750000
vt 0.375000 0.000000
vt 0.605333 0.000000
vt 0.750000 0.625000
vt 0.855333 0.625000
vt 0.855334 0.730333
vt 0.750000 0.730333
vt 0.375000 0.625000
vt 0.605333 0.625000
vt 0.605333 0.750000
vt 0.375000 0.750000
vt 0.605333 0.875000
vt 0.375000 0.875000
vt 0.375000 0.125000
vt 0.605333 0.125000
vt 0.605333 0.250000
vt 0.375000 0.250000
vt 0.375000 0.375000
vt 0.605333 0.375000
vt 0.605333 0.500000
vt 0.375000 0.500000
vt 0.855333 0.519667
vt 0.875000 0.500000
vt 0.875000 0.625000
vt 0.750000 0.519667
vt 0.644667 0.519667
vt 0.625000 0.500000
vt 0.750000 0.500000
vt 0.644667 0.625000
vt 0.644667 0.730333
vt 0.875000 0.750000
vt 0.750000 0.750000
vt 0.605333 1.000000
vt 0.375000 1.000000
vt 0.625000 0.750000
vt 0.375000 0.000000
vt 0.605333 0.000000
vt 0.750000 0.625000
vt 0.855333 0.625000
vt 0.855334 0.730333
vt 0.750000 0.730333
vt 0.375000 0.625000
vt 0.605333 0.625000
vt 0.605333 0.750000
vt 0.375000 0.750000
vt 0.605333 0.875000
vt 0.375000 0.875000
vt 0.375000 0.125000
vt 0.605333 0.125000
vt 0.605333 0.250000
vt 0.375000 0.250000
vt 0.375000 0.375000
vt 0.605333 0.375000
vt 0.605333 0.500000
vt 0.375000 0.500000
vt 0.855333 0.519667
vt 0.875000 0.500000
vt 0.875000 0.625000
vt 0.750000 0.519667
vt 0.644667 0.519667
vt 0.625000 0.500000
vt 0.750000 0.500000
vt 0.644667 0.625000
vt 0.644667 0.730333
vt 0.875000 0.750000
vt 0.750000 0.750000
vt 0.605333 1.000000
vt 0.375000 1.000000
vt 0.625000 0.750000
vt 0.375000 0.000000
vt 0.605333 0.000000
vt 0.750000 0.625000
vt 0.855333 0.625000
vt 0.855334 0.730333
vt 0.750000 0.730333
vt 0.375000 0.625000
vt 0.605333 0.625000
vt 0.605333 0.750000
vt 0.375000 0.750000
vt 0.605333 0.875000
vt 0.375000 0.875000
vt 0.375000 0.125000
vt 0.605333 0.125000
vt 0.605333 0.250000
vt 0.375000 0.250000
vt 0.375000 0.375000
vt 0.605333 0.375000
vt 0.605333 0.500000
vt 0.375000 0.500000
vt 0.855333 0.519667
vt 0.875000 0.500000
vt 0.875000 0.625000
vt 0.750000 0.519667
vt 0.644667 0.519667
vt 0.625000 0.500000
vt 0.750000 0.500000
vt 0.644667 0.625000
vt 0.644667 0.730333
vt 0.875000 0.750000
vt 0.750000 0.750000
vt 0.605333 1.000000
vt 0.375000 1.000000
vt 0.625000 0.750000
vt 0.375000 0.000000
vt 0.605333 0.000000
vt 0.750000 0.625000
vt 0.855333 0.625000
vt 0.855334 0.730333
vt 0.750000 0.730333
vt 0.375000 0.625000
vt 0.605333 0.625000
vt 0.605333 0.750000
vt 0.375000 0.750000
vt 0.605333 0.875000
vt 0.375000 0.875000
vt 0.375000 0.125000
vt 0.605333 0.125000
vt 0.605333 0.250000
vt 0.375000 0.250000
vt 0.375000 0.375000
vt 0.605333 0.375000
vt 0.605333 0.500000
vt 0.375000 0.500000
vt 0.855333 0.519667
vt 0.875000 0.500000
vt 0.875000 0.625000
vt 0.750000 0.519667
vt 0.644667 0.519667
vt 0.625000 0.500000
vt 0.750000 0.500000
vt 0.644667 0.625000
vt 0.644667 0.730333
vt 0.875000 0.750000
vt 0.750000 0.750000
vt 0.605333 1.000000
vt 0.375000 1.000000
vt 0.625000 0.750000
vt 0.375000 0.000000
vt 0.605333 0.000000
vn 0.0359 0.9959 0.0826
vn -0.0515 0.0016 -0.9987
vn 0.9993 0.0024 -0.0365
vn 0.0251 -0.0003 0.9997
vn -0.9963 -0.0127 0.0855
vn 0.0305 0.9809 0.1920
vn -0.2658 0.9594 0.0948
vn 0.0349 0.9864 -0.1606
vn 0.1996 0.9775 0.0678
vn 0.9996 0.0009 -0.0265
vn 0.2739 0.9588 0.0756
vn -0.1738 0.9816 0.0794
vn -0.9950 -0.0065 0.1001
vn 0.0426 0.9941 0.1002
vn -0.0049 0.9956 0.0941
vn -0.0330 0.9868 -0.1586
vn 0.0356 0.9820 0.1854
vn 0.0242 0.0000 0.9997
vn -0.0421 0.0035 -0.9991
vn 0.0190 0.9968 0.0771
vn -0.0303 0.9995 -0.0004
vn 1.0000 -0.0010 0.0078
vn -0.0079 -0.0001 1.0000
vn -1.0000 -0.0004 -0.0037
vn -0.0279 0.0073 -0.9996
vn -0.1580 0.9862 -0.0492
vn -0.0919 0.9651 -0.2454
vn 0.2099 0.9751 0.0714
vn -0.0027 0.9771 0.2128
vn -0.0220 0.9643 0.2638
vn -0.0847 0.9865 -0.1404
vn -0.0604 0.0231 -0.9979
vn -0.0503 0.9976 0.0479
vn -0.0835 0.9964 -0.0121
vn 0.2041 0.9789 0.0018
vn -0.2083 0.9777 -0.0256
vn -1.0000 0.0006 -0.0058
vn 1.0000 -0.0010 0.0079
vn -0.0732 0.9965 -0.0402
vn 0.1142 0.9934 -0.0087
vn 0.9995 -0.0293 0.0080
vn 0.0234 0.0072 0.9997
vn -1.0000 0.0000 -0.0000
vn 0.0399 0.0082 -0.9992
vn -0.0988 0.9912 0.0887
vn 0.0141 0.9998 -0.0166
vn 0.0216 0.9998 0.0028
vn 0.1034 0.9942 0.0287
vn 0.0289 0.0030 0.9996
vn -0.0352 0.9994 0.0050
vn 0.0987 0.9934 -0.0589
vn 0.0460 0.0029 -0.9989
vn -0.0492 0.9988 -0.0015
vn -0.0248 0.9951 0.0961
vn 0.0738 0.9960 0.0495
vn -0.0128 0.9999 -0.0073
vn -1.0000 0.0011 0.0022
vn 0.9929 -0.0180 -0.1172
vn 0.1112 0.9883 0.1047
vn -0.0423 0.9984 0.0367
vn -0.0009 -0.0063 -1.0000
vn 0.9996 0.0000 -0.0279
vn -0.0146 0.0126 0.9998
vn -0.9991 0.0021 0.0420
vn -0.0436 0.9580 0.2834
vn -0.1615 0.9801 0.1158
vn -0.0003 0.9527 -0.3038
vn 0.1263 0.9920 0.0030
vn 0.1458 0.9893 -0.0010
vn -0.1412 0.9865 0.0823
vn -0.9993 0.0044 0.0360
vn -0.0176 0.9991 0.0393
vn -0.0222 0.9957 0.0903
vn -0.0299 0.9639 -0.2645
vn -0.0399 0.9354 0.3514
vn 0.0274 0.0009 0.9996
vn -0.0538 -0.0074 -0.9985
vn -0.0377 0.9966 0.0731
vn 0.0270 0.9993 0.0248
vn 0.0209 0.0040 -0.9998
vn 0.9998 -0.0027 -0.0173
vn -0.0789 -0.0072 0.9969
vn -1.0000 0.0003 -0.0056
vn 0.0136 0.9433 0.3317
vn -0.2905 0.9569 0.0034
vn 0.0165 0.9598 -0.2802
vn 0.2947 0.9553 0.0236
vn 1.0000 -0.0048 -0.0077
vn 0.3020 0.9526 0.0356
vn -0.2694 0.9630 0.0055
vn -1.0000 0.0009 -0.0041
vn 0.0168 0.9992 0.0371
vn 0.0210 0.9996 0.0194
vn 0.0138 0.9481 -0.3175
vn 0.0093 0.9454 0.3257
vn -0.0553 -0.0144 0.9984
vn 0.0154 0.0015 -0.9999
vn 0.0376 0.9992 0.0145
vn 0.0166 0.9998 0.0149
vn 1.0000 0.0005 0.0005
vn -0.0067 -0.0014 1.0000
vn -0.9994 -0.0049 -0.0329
vn -0.0409 -0.0089 -0.9991
vn -0.1765 0.9833 0.0446
vn -0.0550 0.9781 -0.2005
vn 0.1260 0.9888 0.0794
vn 0.0593 0.9870 0.1491
vn 0.0068 -0.0055 1.0000
vn -0.0124 0.9859 0.1670
vn -0.0312 0.9907 -0.1321
vn -0.0195 0.0024 -0.9998
vn -0.0300 0.9970 0.0720
vn -0.0481 0.9966 0.0667
vn 0.2083 0.9766 0.0537
vn -0.1227 0.9920 -0.0289
vn -0.9998 -0.0059 0.0205
vn 0.9998 0.0048 -0.0189
vn -0.0241 0.9979 0.0602
vn 0.0127 0.9948 0.1006
vn 0.0188 -0.0012 -0.9998
vn 0.9997 -0.0029 -0.0240
vn -0.0184 -0.0016 0.9998
vn -0.9997 -0.0097 0.0227
vn 0.0586 0.9672 0.2472
vn -0.3149 0.9482 0.0420
vn -0.0229 0.9693 -0.2449
vn 0.2196 0.9716 0.0882
vn 0.9998 -0.0092 -0.0158
vn 0.3305 0.9382 0.1027
vn -0.2210 0.9735 0.0580
vn -0.9999 -0.0041 0.0146
vn -0.0126 0.9935 0.1133
vn -0.0053 0.9975 0.0700
vn -0.0309 0.9702 -0.2402
vn 0.0122 0.9756 0.2192
vn -0.0128 -0.0031 0.9999
vn 0.0163 -0.0028 -0.9999
vn 0.0462 0.9959 0.0780
vn -0.0065 0.9998 0.0163
vn -0.0341 -0.0086 -0.9994
vn 0.9997 -0.0002 -0.0231
vn -0.0183 -0.0078 0.9998
vn -1.0000 0.0004 0.0091
vn -0.0038 0.9088 0.4172
vn -0.4284 0.9035 0.0145
vn -0.0225 0.9151 -0.4027
vn 0.4203 0.9073 0.0056
vn 0.9998 -0.0024 -0.0185
vn 0.4220 0.9066 0.0025
vn -0.4165 0.9090 0.0127
vn -1.0000 0.0016 0.0057
vn -0.0072 0.9999 0.0156
vn -0.0066 0.9999 0.0139
vn -0.0292 0.9161 -0.3998
vn 0.0085 0.9113 0.4117
vn 0.0340 -0.0067 0.9994
vn -0.0524 -0.0049 -0.9986
vn -0.0030 0.9999 0.0140
s off
f 25/1/1 21/2/1 9/3/1 17/4/1
f 20/5/2 24/6/2 14/7/2 5/8/2
f 5/8/3 14/7/3 18/9/3 6/10/3
f 19/11/4 22/12/4 12/13/4 3/14/4
f 8/15/5 2/16/5 16/17/5 7/18/5
f 21/2/6 11/19/6 12/20/6 22/21/6
f 4/22/7 15/23/7 16/24/7 2/25/7
f 23/26/8 13/27/8 14/7/8 24/6/8
f 17/4/9 9/3/9 10/28/9 18/29/9
f 6/10/10 18/9/10 10/30/10 1/31/10
f 13/27/11 17/4/11 18/29/11 14/32/11
f 11/19/12 4/22/12 2/25/12 12/20/12
f 3/14/13 12/13/13 2/16/13 8/15/13
f 23/26/14 25/1/14 17/4/14 13/27/14
f 15/23/15 4/22/15 25/1/15 23/26/15
f 15/23/16 23/26/16 24/6/16 16/17/16
f 9/3/17 21/2/17 22/21/17 10/28/17
f 1/33/18 10/34/18 22/12/18 19/11/18
f 7/18/19 16/17/19 24/6/19 20/5/19
f 4/22/20 11/19/20 21/2/20 25/1/20
f 50/35/21 46/36/21 34/37/21 42/38/21
f 45/39/22 49/40/22 39/41/22 30/42/22
f 30/42/23 39/41/23 43/43/23 31/44/23
f 44/45/24 47/46/24 37/47/24 28/48/24
f 33/49/25 27/50/25 41/51/25 32/52/25
f 46/36/26 36/53/26 37/54/26 47/55/26
f 29/56/27 40/57/27 41/58/27 27/59/27
f 48/60/28 38/61/28 39/41/28 49/40/28
f 42/38/29 34/37/29 35/62/29 43/63/29
f 31/44/23 43/43/23 35/64/23 26/65/23
f 38/61/30 42/38/30 43/63/30 39/66/30
f 36/53/31 29/56/31 27/59/31 37/54/31
f 28/48/32 37/47/32 27/50/32 33/49/32
f 48/60/33 50/35/33 42/38/33 38/61/33
f 40/57/34 29/56/34 50/35/34 48/60/34
f 40/57/35 48/60/35 49/40/35 41/51/35
f 34/37/36 46/36/36 47/55/36 35/62/36
f 26/67/37 35/68/37 47/46/37 44/45/37
f 32/52/38 41/51/38 49/40/38 45/39/38
f 29/56/39 36/53/39 46/36/39 50/35/39
f 75/69/40 71/70/40 59/71/40 67/72/40
f 70/73/41 74/74/41 64/75/41 55/76/41
f 55/76/42 64/75/42 68/77/42 56/78/42
f 69/79/43 72/80/43 62/81/43 53/82/43
f 58/83/44 52/84/44 66/85/44 57/86/44
f 71/70/45 61/87/45 62/88/45 72/89/45
f 54/90/46 65/91/46 66/92/46 52/93/46
f 73/94/47 63/95/47 64/75/47 74/74/47
f 67/72/48 59/71/48 60/96/48 68/97/48
f 56/78/49 68/77/49 60/98/49 51/99/49
f 63/95/50 67/72/50 68/97/50 64/100/50
f 61/87/51 54/90/51 52/93/51 62/88/51
f 53/82/52 62/81/52 52/84/52 58/83/52
f 73/94/53 75/69/53 67/72/53 63/95/53
f 65/91/54 54/90/54 75/69/54 73/94/54
f 65/91/55 73/94/55 74/74/55 66/85/55
f 59/71/56 71/70/56 72/89/56 60/96/56
f 51/101/57 60/102/57 72/80/57 69/79/57
f 57/86/58 66/85/58 74/74/58 70/73/58
f 54/90/59 61/87/59 71/70/59 75/69/59
f 100/103/60 96/104/60 84/105/60 92/106/60
f 95/107/61 99/108/61 89/109/61 80/110/61
f 80/110/62 89/109/62 93/111/62 81/112/62
f 94/113/63 97/114/63 87/115/63 78/116/63
f 83/117/64 77/118/64 91/119/64 82/120/64
f 96/104/65 86/121/65 87/122/65 97/123/65
f 79/124/66 90/125/66 91/126/66 77/127/66
f 98/128/67 88/129/67 89/109/67 99/108/67
f 92/106/68 84/105/68 85/130/68 93/131/68
f 81/112/62 93/111/62 85/132/62 76/133/62
f 88/129/69 92/106/69 93/131/69 89/134/69
f 86/121/70 79/124/70 77/127/70 87/122/70
f 78/116/71 87/115/71 77/118/71 83/117/71
f 98/128/72 100/103/72 92/106/72 88/129/72
f 90/125/73 79/124/73 100/103/73 98/128/73
f 90/125/74 98/128/74 99/108/74 91/119/74
f 84/105/75 96/104/75 97/123/75 85/130/75
f 76/135/76 85/136/76 97/114/76 94/113/76
f 82/120/77 91/119/77 99/108/77 95/107/77
f 79/124/78 86/121/78 96/104/78 100/103/78
f 125/137/79 121/138/79 109/139/79 117/140/79
f 120/141/80 124/142/80 114/143/80 105/144/80
f 105/144/81 114/143/81 118/145/81 106/146/81
f 119/147/82 122/148/82 112/149/82 103/150/82
f 108/151/83 102/152/83 116/153/83 107/154/83
f 121/138/84 111/155/84 112/156/84 122/157/84
f 104/158/85 115/159/85 116/160/85 102/161/85
f 123/162/86 113/163/86 114/143/86 124/142/86
f 117/140/87 109/139/87 110/164/87 118/165/87
f 106/146/88 118/145/88 110/166/88 101/167/88
f 113/163/89 117/140/89 118/165/89 114/168/89
f 111/155/90 104/158/90 102/161/90 112/156/90
f 103/150/91 112/149/91 102/152/91 108/151/91
f 123/162/92 125/137/92 117/140/92 113/163/92
f 115/159/93 104/158/93 125/137/93 123/162/93
f 115/159/94 123/162/94 124/142/94 116/153/94
f 109/139/95 121/138/95 122/157/95 110/164/95
f 101/169/96 110/170/96 122/148/96 119/147/96
f 107/154/97 116/153/97 124/142/97 120/141/97
f 104/158/98 111/155/98 121/138/98 125/137/98
f 150/171/99 146/172/99 134/173/99 142/174/99
f 145/175/100 149/176/100 139/177/100 130/178/100
f 130/178/101 139/177/101 143/179/101 131/180/101
f 144/181/102 147/182/102 137/183/102 128/184/102
f 133/185/103 127/186/103 141/187/103 132/188/103
f 146/172/104 136/189/104 137/190/104 147/191/104
f 129/192/105 140/193/105 141/194/105 127/195/105
f 148/196/106 138/197/106 139/177/106 149/176/106
f 142/174/107 134/173/107 135/198/107 143/199/107
f 131/180/108 143/179/108 135/200/108 126/201/108
f 138/197/109 142/174/109 143/199/109 139/202/109
f 136/189/110 129/192/110 127/195/110 137/190/110
f 128/184/111 137/183/111 127/186/111 133/185/111
f 148/196/112 150/171/112 142/174/112 138/197/112
f 140/193/113 129/192/113 150/171/113 148/196/113
f 140/193/114 148/196/114 149/176/114 141/187/114
f 134/173/115 146/172/115 147/191/115 135/198/115
f 126/203/116 135/204/116 147/182/116 144/181/116
f 132/188/117 141/187/117 149/176/117 145/175/117
f 129/192/118 136/189/118 146/172/118 150/171/118
f 175/205/119 171/206/119 159/207/119 167/208/119
f 170/209/120 174/210/120 164/211/120 155/212/120
f 155/212/121 164/211/121 168/213/121 156/214/121
f 169/215/122 172/216/122 162/217/122 153/218/122
f 158/219/123 152/220/123 166/221/123 157/222/123
f 171/206/124 161/223/124 162/224/124 172/225/124
f 154/226/125 165/227/125 166/228/125 152/229/125
f 173/230/126 163/231/126 164/211/126 174/210/126
f 167/208/127 159/207/127 160/232/127 168/233/127
f 156/214/128 168/213/128 160/234/128 151/235/128
f 163/231/129 167/208/129 168/233/129 164/236/129
f 161/223/130 154/226/130 152/229/130 162/224/130
f 153/218/131 162/217/131 152/220/131 158/219/131
f 173/230/132 175/205/132 167/208/132 163/231/132
f 165/227/133 154/226/133 175/205/133 173/230/133
f 165/227/134 173/230/134 174/210/134 166/221/134
f 159/207/135 171/206/135 172/225/135 160/232/135
f 151/237/136 160/238/136 172/216/136 169/215/136
f 157/222/137 166/221/137 174/210/137 170/209/137
f 154/226/138 161/223/138 171/206/138 175/205/138
f 200/239/139 196/240/139 184/241/139 192/242/139
f 195/243/140 199/244/140 189/245/140 180/246/140
f 180/246/141 189/245/141 193/247/141 181/248/141
f 194/249/142 197/250/142 187/251/142 178/252/142
f 183/253/143 177/254/143 191/255/143 182/256/143
f 196/240/144 186/257/144 187/258/144 197/259/144
f 179/260/145 190/261/145 191/262/145 177/263/145
f 198/264/146 188/265/146 189/245/146 199/244/146
f 192/242/147 184/241/147 185/266/147 193/267/147
f 181/248/148 193/247/148 185/268/148 176/269/148
f 188/265/149 192/242/149 193/267/149 189/270/149
f 186/257/150 179/260/150 177/263/150 187/258/150
f 178/252/151 187/251/151 177/254/151 183/253/151
f 198/264/152 200/239/152 192/242/152 188/265/152
f 190/261/153 179/260/153 200/239/153 198/264/153
f 190/261/154 198/264/154 199/244/154 191/255/154
f 184/241/155 196/240/155 197/259/155 185/266/155
f 176/271/156 185/272/156 197/250/156 194/249/156
f 182/256/157 191/255/157 199/244/157 195/243/157
f 179/260/158 186/257/158 196/240/158 200/239/158
