# Blender v2.81 (sub 16) OBJ File: 'Wall Proxies.blend'
# www.blender.org
o Tower_doors_none_Cube.003
v -0.462131 0.000000 0.462131
v -0.337541 1.569618 0.337541
v -0.462131 0.000000 -0.462131
v -0.337541 1.569618 -0.337541
v 0.462131 0.000000 0.462131
v 0.337541 1.569618 0.337541
v 0.462131 0.000000 -0.462131
v 0.337541 1.569618 -0.337541
v -0.276070 1.863425 0.276070
v -0.276070 1.863425 -0.276070
v 0.276070 1.863425 0.276070
v 0.276070 1.863425 -0.276070
v -0.403828 1.636787 -0.403828
v 0.403828 1.636787 -0.403828
v 0.403828 1.636787 0.403828
v -0.403828 1.636787 0.403828
v -0.403828 1.863425 0.403828
v -0.403828 1.863425 -0.403828
v 0.403828 1.863425 -0.403828
v 0.403828 1.863425 0.403828
v -0.276070 1.701867 0.276070
v -0.276070 1.701867 -0.276070
v 0.276070 1.701867 -0.276070
v 0.276070 1.701867 0.276070
v -0.389064 0.337872 0.389064
v -0.389064 0.337872 -0.389064
v 0.389064 0.337872 -0.389064
v 0.389064 0.337872 0.389064
v -0.449331 0.266973 -0.449331
v 0.449331 0.266973 -0.449331
v 0.449331 0.266973 0.449331
v -0.449331 0.266973 0.449331
v -0.462131 0.000000 0.000000
v -0.337541 1.569618 0.000000
v 0.462131 0.000000 0.000000
v 0.337541 1.569618 0.000000
v -0.403828 1.863425 0.000000
v 0.403828 1.863425 0.000000
v -0.403828 1.636787 0.000000
v 0.403828 1.636787 0.000000
v -0.276070 1.863425 0.000000
v 0.276070 1.863425 0.000000
v -0.276070 1.701867 0.000000
v 0.276070 1.701867 0.000000
v 0.389064 0.337872 0.000000
v -0.389064 0.337872 0.000000
v -0.449331 0.266973 0.000000
v 0.449331 0.266973 0.000000
v 0.000000 0.000000 -0.462131
v 0.000000 1.569618 -0.337541
v 0.000000 0.000000 0.462131
v 0.000000 1.569618 0.337541
v 0.000000 1.863425 -0.403828
v 0.000000 1.863425 0.403828
v 0.000000 1.636787 0.403828
v 0.000000 1.636787 -0.403828
v 0.000000 1.863425 -0.276070
v 0.000000 1.863425 0.276070
v 0.000000 1.701867 -0.276070
v 0.000000 1.701867 0.276070
v 0.000000 0.337872 0.389064
v 0.000000 0.337872 -0.389064
v 0.000000 0.266973 -0.449331
v 0.000000 0.266973 0.449331
v 0.000000 0.000000 0.000000
v -0.462131 0.000000 0.188607
v 0.337541 1.569618 0.137759
v 0.403828 1.863425 0.137937
v 0.403828 1.636787 0.129361
v 0.276070 1.863425 0.137966
v 0.276070 1.701867 0.137966
v 0.389064 0.337872 0.158787
v 0.449331 0.266973 0.183383
v -0.337541 1.569618 0.137759
v 0.462131 0.000000 0.188607
v -0.403828 1.863425 0.137937
v -0.403828 1.636787 0.129361
v -0.276070 1.863425 0.137966
v -0.276070 1.701867 0.137966
v -0.389064 0.337872 0.158787
v -0.449331 0.266973 0.183383
v 0.000000 1.701867 0.137966
v 0.000000 0.000000 0.188607
v -0.337541 1.569618 -0.137759
v 0.462131 0.000000 -0.188606
v -0.403828 1.863425 -0.137904
v -0.403828 1.636787 -0.129330
v -0.276070 1.863425 -0.137923
v -0.276070 1.701867 -0.137923
v -0.389064 0.337872 -0.158786
v -0.449331 0.266973 -0.183383
v -0.462131 0.000000 -0.188606
v 0.337541 1.569618 -0.137759
v 0.403828 1.863425 -0.137904
v 0.403828 1.636787 -0.129330
v 0.276070 1.863425 -0.137923
v 0.276070 1.701867 -0.137923
v 0.389064 0.337872 -0.158786
v 0.449331 0.266973 -0.183383
v 0.000000 0.000000 -0.188606
v 0.000000 1.701867 -0.137923
v 0.132378 1.569618 -0.337541
v 0.181240 0.000000 0.462131
v 0.137218 1.863425 -0.403828
v 0.137218 1.636787 -0.403828
v 0.137143 1.863425 -0.276070
v 0.137143 1.701867 -0.276070
v 0.152585 0.337872 -0.389064
v 0.176220 0.266973 -0.449331
v 0.137143 1.701867 0.000000
v 0.181240 0.000000 -0.462131
v 0.132378 1.569618 0.337541
v 0.137218 1.863425 0.403828
v 0.137218 1.636787 0.403828
v 0.137143 1.863425 0.276070
v 0.137143 1.701867 0.276070
v 0.152585 0.337872 0.389064
v 0.176220 0.266973 0.449331
v 0.181240 0.000000 0.000000
v 0.137143 1.701867 0.137966
v 0.181240 0.000000 0.188607
v 0.137143 1.701867 -0.137923
v 0.181240 0.000000 -0.188606
v -0.181240 0.000000 -0.462131
v -0.132378 1.569618 0.337541
v -0.137728 1.863425 0.403828
v -0.137728 1.636787 0.403828
v -0.137785 1.863425 0.276070
v -0.137785 1.701867 0.276070
v -0.152585 0.337872 0.389064
v -0.176220 0.266973 0.449331
v -0.181240 0.000000 0.000000
v -0.132378 1.569618 -0.337541
v -0.181240 0.000000 0.462131
v -0.137728 1.863425 -0.403828
v -0.137728 1.636787 -0.403828
v -0.137785 1.863425 -0.276070
v -0.137785 1.701867 -0.276070
v -0.152585 0.337872 -0.389064
v -0.176220 0.266973 -0.449331
v -0.137785 1.701867 0.000000
v -0.181240 0.000000 0.188607
v -0.137785 1.701867 0.137966
v -0.181240 0.000000 -0.188606
v -0.137785 1.701867 -0.137923
v -0.403828 1.999079 -0.137904
v -0.403828 1.999079 -0.403828
v 0.137218 1.999079 -0.403828
v 0.403828 1.999079 -0.403828
v 0.403828 1.999079 0.137937
v 0.403828 1.999079 0.403828
v -0.137728 1.999079 0.403828
v -0.403828 1.999079 0.403828
v -0.276070 1.999079 -0.137923
v -0.276070 1.999079 -0.276070
v 0.137143 1.999079 -0.276070
v 0.276070 1.999079 -0.276070
v 0.276070 1.999079 0.137966
v 0.276070 1.999079 0.276070
v -0.137785 1.999079 0.276070
v -0.276070 1.999079 0.276070
v -0.403828 1.999079 0.137937
v -0.276070 1.999079 0.137966
v 0.403828 1.999079 -0.137904
v 0.276070 1.999079 -0.137923
v 0.137218 1.999079 0.403828
v 0.137143 1.999079 0.276070
v -0.137728 1.999079 -0.403828
v -0.137785 1.999079 -0.276070
v -0.348756 1.239599 0.348756
v -0.348756 1.239599 -0.348756
v 0.348756 1.239599 -0.348756
v 0.348756 1.239599 0.348756
v 0.348756 1.239599 0.000000
v -0.348756 1.239599 0.000000
v 0.000000 1.239599 0.348756
v 0.000000 1.239599 -0.348756
v -0.348756 1.239599 0.142336
v 0.348756 1.239599 0.142336
v 0.348756 1.239599 -0.142335
v -0.348756 1.239599 -0.142335
v 0.136776 1.239599 0.348756
v 0.136776 1.239599 -0.348756
v -0.136776 1.239599 -0.348756
v -0.136776 1.239599 0.348756
v -0.369636 0.802350 -0.369636
v 0.369636 0.802350 -0.369636
v 0.369636 0.802350 0.369636
v 0.369636 0.802350 0.000000
v -0.369636 0.802350 0.000000
v 0.000000 0.802350 0.369636
v 0.000000 0.802350 -0.369636
v -0.369636 0.802350 0.150857
v 0.369636 0.802350 0.150857
v 0.369636 0.802350 -0.150857
v -0.369636 0.802350 -0.150857
v 0.144965 0.802350 0.369636
v 0.144965 0.802350 -0.369636
v -0.144965 0.802350 -0.369636
v -0.144965 0.802350 0.369636
v -0.369636 0.802350 0.369636
v -0.121295 1.741243 0.000002
v -0.000026 1.741243 0.000002
v -0.000026 1.741243 -0.121389
v -0.000026 1.741243 0.121430
v -0.121295 1.741243 0.121430
v -0.121295 1.741243 -0.121389
v 0.120679 1.741243 0.000002
v 0.120679 1.741243 0.121430
v 0.120679 1.741243 -0.121389
vt 0.582298 0.187500
vt 0.625000 0.187500
vt 0.625000 0.250000
vt 0.582298 0.250000
vt 0.582298 0.437500
vt 0.625000 0.437500
vt 0.625000 0.500000
vt 0.582298 0.500000
vt 0.582298 0.687500
vt 0.625000 0.687500
vt 0.625000 0.750000
vt 0.582298 0.750000
vt 0.582298 0.937500
vt 0.625000 0.937500
vt 0.625000 1.000000
vt 0.582298 1.000000
vt 0.312500 0.687500
vt 0.375000 0.687500
vt 0.375000 0.750000
vt 0.312500 0.750000
vt 0.625000 0.312500
vt 0.625000 0.250000
vt 0.625000 0.250000
vt 0.625000 0.312500
vt 0.658337 0.579169
vt 0.658337 0.533337
vt 0.658337 0.533337
vt 0.658337 0.579169
vt 0.625000 0.562500
vt 0.625000 0.500000
vt 0.625000 0.500000
vt 0.625000 0.562500
vt 0.625000 0.062500
vt 0.625000 0.000000
vt 0.625000 0.000000
vt 0.625000 0.062500
vt 0.625000 0.812500
vt 0.625000 0.750000
vt 0.625000 0.750000
vt 0.625000 0.812500
vt 0.625000 0.812500
vt 0.625000 0.062500
vt 0.625000 0.000000
vt 0.625000 0.562500
vt 0.625000 0.312500
vt 0.625000 0.750000
vt 0.625000 0.812500
vt 0.625000 0.687500
vt 0.658337 0.670832
vt 0.658337 0.670832
vt 0.625000 0.687500
vt 0.625000 0.250000
vt 0.625000 0.312500
vt 0.625000 0.562500
vt 0.658337 0.579169
vt 0.795831 0.670831
vt 0.841663 0.670831
vt 0.841663 0.716663
vt 0.795831 0.716663
vt 0.841663 0.670831
vt 0.841663 0.716663
vt 0.704169 0.716663
vt 0.658337 0.716663
vt 0.658337 0.716663
vt 0.704169 0.716663
vt 0.795832 0.533337
vt 0.841663 0.533337
vt 0.841663 0.533337
vt 0.795831 0.533337
vt 0.417522 0.937500
vt 0.428814 0.937500
vt 0.428814 1.000000
vt 0.417522 1.000000
vt 0.417522 0.687500
vt 0.428814 0.687500
vt 0.428814 0.750000
vt 0.417522 0.750000
vt 0.417522 0.437500
vt 0.428814 0.437500
vt 0.428814 0.500000
vt 0.417522 0.500000
vt 0.417522 0.187500
vt 0.428814 0.187500
vt 0.428814 0.250000
vt 0.417522 0.250000
vt 0.375000 0.187500
vt 0.375000 0.250000
vt 0.375000 0.437500
vt 0.375000 0.500000
vt 0.375000 0.937500
vt 0.375000 1.000000
vt 0.375000 0.562500
vt 0.417522 0.562500
vt 0.417522 0.625000
vt 0.375000 0.625000
vt 0.375000 0.062500
vt 0.417522 0.062500
vt 0.417522 0.125000
vt 0.375000 0.125000
vt 0.428814 0.062500
vt 0.428814 0.125000
vt 0.428814 0.562500
vt 0.428814 0.625000
vt 0.841663 0.579169
vt 0.841663 0.625000
vt 0.841663 0.625000
vt 0.841663 0.579169
vt 0.795831 0.579169
vt 0.795831 0.625000
vt 0.658337 0.625000
vt 0.625000 0.625000
vt 0.875000 0.625000
vt 0.875000 0.687500
vt 0.625000 0.625000
vt 0.625000 0.625000
vt 0.625000 0.687500
vt 0.625000 0.125000
vt 0.625000 0.125000
vt 0.625000 0.187500
vt 0.625000 0.125000
vt 0.625000 0.187500
vt 0.658337 0.625000
vt 0.658337 0.670831
vt 0.312500 0.562500
vt 0.312500 0.625000
vt 0.582298 0.562500
vt 0.582298 0.625000
vt 0.582298 0.062500
vt 0.582298 0.125000
vt 0.187500 0.562500
vt 0.250000 0.562500
vt 0.250000 0.625000
vt 0.187500 0.625000
vt 0.704169 0.670831
vt 0.704169 0.625000
vt 0.704169 0.625000
vt 0.704169 0.670831
vt 0.375000 0.812500
vt 0.417522 0.812500
vt 0.417522 0.875000
vt 0.375000 0.875000
vt 0.375000 0.312500
vt 0.417522 0.312500
vt 0.417522 0.375000
vt 0.375000 0.375000
vt 0.428814 0.312500
vt 0.428814 0.375000
vt 0.428814 0.812500
vt 0.428814 0.875000
vt 0.704169 0.533337
vt 0.750000 0.533337
vt 0.750000 0.533337
vt 0.704169 0.533337
vt 0.795832 0.716663
vt 0.750000 0.716663
vt 0.750000 0.716663
vt 0.750000 0.670831
vt 0.750000 0.750000
vt 0.687500 0.750000
vt 0.750000 0.500000
vt 0.812500 0.500000
vt 0.625000 0.375000
vt 0.625000 0.375000
vt 0.625000 0.437500
vt 0.625000 0.875000
vt 0.625000 0.875000
vt 0.625000 0.937500
vt 0.625000 0.875000
vt 0.625000 0.937500
vt 0.625000 0.375000
vt 0.625000 0.437500
vt 0.187500 0.687500
vt 0.250000 0.687500
vt 0.250000 0.750000
vt 0.187500 0.750000
vt 0.582298 0.812500
vt 0.582298 0.875000
vt 0.582298 0.312500
vt 0.582298 0.375000
vt 0.750000 0.670831
vt 0.582298 0.000000
vt 0.812500 0.750000
vt 0.795832 0.716663
vt 0.812500 0.750000
vt 0.417522 0.000000
vt 0.428814 0.000000
vt 0.375000 0.000000
vt 0.750000 0.579169
vt 0.704169 0.579169
vt 0.187500 0.500000
vt 0.250000 0.500000
vt 0.312500 0.500000
vt 0.875000 0.562500
vt 0.841663 0.579169
vt 0.875000 0.562500
vt 0.687500 0.500000
vt 0.704169 0.533337
vt 0.687500 0.500000
vt 0.125000 0.500000
vt 0.125000 0.562500
vt 0.750000 0.579169
vt 0.704169 0.579169
vt 0.125000 0.625000
vt 0.125000 0.687500
vt 0.125000 0.750000
vt 0.625000 1.000000
vt 0.625000 1.000000
vt 0.841663 0.716663
vt 0.795831 0.579169
vt 0.841663 0.533337
vt 0.875000 0.500000
vt 0.658337 0.533337
vt 0.625000 0.500000
vt 0.658337 0.716663
vt 0.875000 0.750000
vt 0.841663 0.670831
vt 0.875000 0.687500
vt 0.704169 0.716663
vt 0.687500 0.750000
vt 0.795832 0.533337
vt 0.812500 0.500000
vt 0.625000 0.187500
vt 0.625000 0.000000
vt 0.625000 0.062500
vt 0.625000 0.437500
vt 0.625000 0.937500
vt 0.625000 1.000000
vt 0.502794 0.875000
vt 0.502794 0.937500
vt 0.502794 0.250000
vt 0.502794 0.312500
vt 0.502794 0.375000
vt 0.502794 0.437500
vt 0.502794 0.750000
vt 0.502794 0.812500
vt 0.502794 0.125000
vt 0.502794 0.187500
vt 0.502794 0.500000
vt 0.502794 0.562500
vt 0.502794 0.625000
vt 0.502794 0.687500
vt 0.502794 0.000000
vt 0.502794 0.062500
vt 0.502794 1.000000
vt 0.750000 0.625000
vt 0.795831 0.625000
vt 0.795831 0.670831
vn -0.9994 0.0340 0.0000
vn 0.0000 0.0340 -0.9994
vn 0.9994 0.0340 0.0000
vn 0.0000 0.0340 0.9994
vn 0.0000 -1.0000 0.0000
vn 0.0000 0.0000 -1.0000
vn -1.0000 0.0000 0.0000
vn 1.0000 -0.0000 0.0000
vn 0.0000 0.0000 1.0000
vn 0.0000 -0.7024 0.7118
vn -0.7118 -0.7024 0.0000
vn 0.7118 -0.7024 0.0000
vn 0.0000 -0.7024 -0.7118
vn -0.0002 0.0000 -1.0000
vn -0.0002 0.0000 1.0000
vn 0.0000 1.0000 0.0000
vn 0.0000 0.6477 0.7619
vn 0.7619 0.6477 0.0000
vn 0.0000 0.6477 -0.7619
vn -0.7619 0.6477 0.0000
vn -0.9989 0.0479 0.0000
vn 0.0000 0.0479 -0.9989
vn 0.9989 0.0479 0.0000
vn 0.0000 0.0479 0.9989
vn 0.9226 0.3858 0.0000
vn 0.0000 0.3872 0.9220
vn 1.0000 0.0000 -0.0005
vn 0.0002 0.0000 1.0000
vn -1.0000 0.0000 -0.0006
vn 0.0000 0.3872 -0.9220
vn 0.0002 0.0000 -1.0000
vn -1.0000 0.0000 0.0006
vn 1.0000 0.0000 0.0005
vn 0.0000 0.0477 0.9989
vn 0.0000 0.0477 -0.9989
vn -0.9989 0.0477 0.0000
vn 0.9989 0.0477 0.0000
vn -0.9991 0.0418 0.0000
vn 0.0000 0.0418 -0.9991
vn 0.9991 0.0418 0.0000
vn 0.0000 0.0418 0.9991
vn -0.9224 0.3863 0.0000
s off
f 181/1/1 84/2/1 4/3/1 171/4/1
f 183/5/2 102/6/2 8/7/2 172/8/2
f 179/9/3 67/10/3 6/11/3 173/12/3
f 185/13/4 125/14/4 2/15/4 170/16/4
f 121/17/5 75/18/5 5/19/5 103/20/5
f 136/21/6 13/22/6 18/23/6 135/24/6
f 96/25/7 12/26/7 23/27/7 97/28/7
f 95/29/8 14/30/8 19/31/8 94/32/8
f 77/33/7 16/34/7 17/35/7 76/36/7
f 114/37/9 15/38/9 20/39/9 113/40/9
f 112/41/10 6/11/10 15/38/10 114/37/10
f 74/42/11 2/43/11 16/34/11 77/33/11
f 93/44/12 8/7/12 14/30/12 95/29/12
f 133/45/13 4/3/13 13/22/13 136/21/13
f 113/40/9 20/39/9 151/46/9 166/47/9
f 68/48/14 70/49/14 158/50/14 150/51/14
f 135/24/6 18/23/6 147/52/6 168/53/6
f 96/25/15 94/32/15 164/54/15 165/55/15
f 143/56/16 79/57/16 21/58/16 129/59/16
f 78/60/8 9/61/8 21/58/8 79/57/8
f 115/62/6 11/63/6 24/64/6 116/65/6
f 137/66/9 10/67/9 22/68/9 138/69/9
f 131/70/17 130/71/17 25/72/17 32/73/17
f 73/74/18 72/75/18 28/76/18 31/77/18
f 109/78/19 108/79/19 27/80/19 30/81/19
f 91/82/20 90/83/20 26/84/20 29/85/20
f 92/86/21 91/82/21 29/85/21 3/87/21
f 111/88/22 109/78/22 30/81/22 7/89/22
f 75/18/23 73/74/23 31/77/23 5/19/23
f 134/90/24 131/70/24 32/73/24 1/91/24
f 85/92/23 99/93/23 48/94/23 35/95/23
f 66/96/21 81/97/21 47/98/21 33/99/21
f 81/97/20 80/100/20 46/101/20 47/98/20
f 99/93/18 98/102/18 45/103/18 48/94/18
f 88/104/8 41/105/8 43/106/8 89/107/8
f 145/108/16 89/107/16 43/106/16 141/109/16
f 96/25/16 42/110/16 38/111/16 94/32/16
f 78/60/16 41/105/16 37/112/16 76/113/16
f 67/10/12 36/114/12 40/115/12 69/116/12
f 84/2/11 34/117/11 39/118/11 87/119/11
f 87/119/7 39/118/7 37/120/7 86/121/7
f 69/116/8 40/115/8 38/111/8 68/48/8
f 70/49/7 42/110/7 44/122/7 71/123/7
f 123/124/5 85/92/5 35/95/5 119/125/5
f 180/126/3 93/44/3 36/114/3 174/127/3
f 178/128/1 74/42/1 34/117/1 175/129/1
f 144/130/5 100/131/5 65/132/5 132/133/5
f 120/134/25 110/135/25 208/136/25 209/137/25
f 103/138/24 118/139/24 64/140/24 51/141/24
f 124/142/22 140/143/22 63/144/22 49/145/22
f 140/143/19 139/146/19 62/147/19 63/144/19
f 118/139/17 117/148/17 61/149/17 64/140/17
f 106/150/9 57/151/9 59/152/9 107/153/9
f 128/154/6 58/155/6 60/156/6 129/59/6
f 120/134/16 82/157/16 60/156/16 116/65/16
f 115/62/16 58/155/16 54/158/16 113/159/16
f 137/66/16 57/151/16 53/160/16 135/161/16
f 102/6/13 50/162/13 56/163/13 105/164/13
f 125/14/10 52/165/10 55/166/10 127/167/10
f 127/167/9 55/166/9 54/168/9 126/169/9
f 105/164/6 56/163/6 53/170/6 104/171/6
f 142/172/5 83/173/5 51/174/5 134/175/5
f 182/176/4 112/41/4 52/165/4 176/177/4
f 184/178/2 133/45/2 50/162/2 177/179/2
f 132/133/5 65/132/5 83/173/5 142/172/5
f 82/157/26 120/134/26 209/137/26 205/180/26
f 170/181/1 2/43/1 74/42/1 178/128/1
f 11/63/7 70/49/7 71/123/7 24/64/7
f 15/38/8 69/116/8 68/48/8 20/39/8
f 6/11/12 67/10/12 69/116/12 15/38/12
f 126/182/27 128/154/27 160/183/27 152/184/27
f 32/185/20 25/186/20 80/100/20 81/97/20
f 1/187/21 32/185/21 81/97/21 66/96/21
f 35/95/23 48/94/23 73/74/23 75/18/23
f 48/94/18 45/103/18 72/75/18 73/74/18
f 41/105/8 78/60/8 79/57/8 43/106/8
f 141/109/16 43/106/16 79/57/16 143/56/16
f 42/110/16 70/49/16 68/48/16 38/111/16
f 34/117/11 74/42/11 77/33/11 39/118/11
f 39/118/7 77/33/7 76/36/7 37/120/7
f 119/125/5 35/95/5 75/18/5 121/17/5
f 174/127/3 36/114/3 67/10/3 179/9/3
f 107/153/16 59/152/16 101/188/16 122/189/16
f 124/190/5 49/191/5 100/131/5 144/130/5
f 172/8/3 8/7/3 93/44/3 180/126/3
f 111/192/5 7/89/5 85/92/5 123/124/5
f 13/22/7 87/119/7 86/121/7 18/23/7
f 4/3/11 84/2/11 87/119/11 13/22/11
f 86/193/28 88/104/28 154/194/28 146/195/28
f 138/69/16 22/68/16 89/107/16 145/108/16
f 10/67/8 88/104/8 89/107/8 22/68/8
f 30/81/18 27/80/18 98/102/18 99/93/18
f 7/89/23 30/81/23 99/93/23 85/92/23
f 33/99/21 47/98/21 91/82/21 92/86/21
f 47/98/20 46/101/20 90/83/20 91/82/20
f 41/105/16 88/104/16 86/193/16 37/112/16
f 36/114/12 93/44/12 95/29/12 40/115/12
f 40/115/8 95/29/8 94/32/8 38/111/8
f 42/110/7 96/25/7 97/28/7 44/122/7
f 175/129/1 34/117/1 84/2/1 181/1/1
f 49/191/5 111/192/5 123/124/5 100/131/5
f 23/27/16 107/153/16 122/189/16 97/28/16
f 65/132/5 119/125/5 121/17/5 83/173/5
f 44/122/16 110/135/16 120/134/16 71/123/16
f 173/12/4 6/11/4 112/41/4 182/176/4
f 14/30/6 105/164/6 104/171/6 19/31/6
f 8/7/13 102/6/13 105/164/13 14/30/13
f 104/196/29 106/150/29 156/197/29 148/198/29
f 71/123/16 120/134/16 116/65/16 24/64/16
f 12/26/9 106/150/9 107/153/9 23/27/9
f 31/77/17 28/76/17 117/148/17 118/139/17
f 5/19/24 31/77/24 118/139/24 103/138/24
f 97/28/16 122/189/16 110/135/16 44/122/16
f 100/131/5 123/124/5 119/125/5 65/132/5
f 49/145/22 63/144/22 109/78/22 111/88/22
f 63/144/19 62/147/19 108/79/19 109/78/19
f 58/155/6 115/62/6 116/65/6 60/156/6
f 57/151/16 106/150/16 104/196/16 53/160/16
f 52/165/10 112/41/10 114/37/10 55/166/10
f 55/166/9 114/37/9 113/40/9 54/168/9
f 83/173/5 121/17/5 103/20/5 51/174/5
f 177/179/2 50/162/2 102/6/2 183/5/2
f 59/152/16 138/69/16 145/108/16 101/188/16
f 3/199/5 124/190/5 144/130/5 92/200/5
f 122/189/30 101/188/30 204/201/30 210/202/30
f 33/203/5 132/133/5 142/172/5 66/204/5
f 171/4/2 4/3/2 133/45/2 184/178/2
f 66/204/5 142/172/5 134/175/5 1/205/5
f 16/206/9 127/167/9 126/169/9 17/207/9
f 2/15/10 125/14/10 127/167/10 16/206/10
f 128/154/6 9/61/6 161/208/6 160/183/6
f 9/61/6 128/154/6 129/59/6 21/58/6
f 29/85/19 26/84/19 139/146/19 140/143/19
f 3/87/22 29/85/22 140/143/22 124/142/22
f 92/200/5 144/130/5 132/133/5 33/203/5
f 101/188/30 145/108/30 207/209/30 204/201/30
f 51/141/24 64/140/24 131/70/24 134/90/24
f 64/140/17 61/149/17 130/71/17 131/70/17
f 57/151/9 137/66/9 138/69/9 59/152/9
f 82/157/16 143/56/16 129/59/16 60/156/16
f 58/155/16 128/154/16 126/182/16 54/158/16
f 50/162/13 133/45/13 136/21/13 56/163/13
f 56/163/6 136/21/6 135/24/6 53/170/6
f 176/177/4 52/165/4 125/14/4 185/13/4
f 154/194/16 155/210/16 147/211/16 146/195/16
f 156/197/16 157/212/16 149/213/16 148/198/16
f 158/50/16 159/214/16 151/46/16 150/51/16
f 160/183/16 161/208/16 153/215/16 152/184/16
f 161/208/16 163/216/16 162/217/16 153/215/16
f 157/212/16 165/55/16 164/54/16 149/213/16
f 159/214/16 167/218/16 166/219/16 151/46/16
f 155/210/16 169/220/16 168/221/16 147/211/16
f 94/32/8 19/31/8 149/213/8 164/54/8
f 78/60/31 76/113/31 162/217/31 163/216/31
f 18/23/7 86/121/7 146/222/7 147/52/7
f 76/36/7 17/35/7 153/223/7 162/224/7
f 10/67/9 137/66/9 169/220/9 155/210/9
f 19/31/6 104/171/6 148/225/6 149/213/6
f 11/63/6 115/62/6 167/218/6 159/214/6
f 12/26/7 96/25/7 165/55/7 157/212/7
f 88/104/8 10/67/8 155/210/8 154/194/8
f 20/39/8 68/48/8 150/51/8 151/46/8
f 106/150/9 12/26/9 157/212/9 156/197/9
f 9/61/8 78/60/8 163/216/8 161/208/8
f 115/62/32 113/159/32 166/219/32 167/218/32
f 137/66/33 135/161/33 168/221/33 169/220/33
f 17/207/9 126/169/9 152/226/9 153/227/9
f 70/49/7 11/63/7 159/214/7 158/50/7
f 191/228/34 176/177/34 185/13/34 200/229/34
f 186/230/35 171/4/35 184/178/35 199/231/35
f 192/232/35 177/179/35 183/5/35 198/233/35
f 188/234/34 173/12/34 182/176/34 197/235/34
f 190/236/36 175/129/36 181/1/36 196/237/36
f 187/238/37 172/8/37 180/126/37 195/239/37
f 189/240/37 174/127/37 179/9/37 194/241/37
f 201/242/36 170/181/36 178/128/36 193/243/36
f 199/231/35 184/178/35 177/179/35 192/232/35
f 197/235/34 182/176/34 176/177/34 191/228/34
f 193/243/36 178/128/36 175/129/36 190/236/36
f 195/239/37 180/126/37 174/127/37 189/240/37
f 200/229/34 185/13/34 170/16/34 201/244/34
f 194/241/37 179/9/37 173/12/37 188/234/37
f 198/233/35 183/5/35 172/8/35 187/238/35
f 196/237/36 181/1/36 171/4/36 186/230/36
f 90/83/38 196/237/38 186/230/38 26/84/38
f 108/79/39 198/233/39 187/238/39 27/80/39
f 72/75/40 194/241/40 188/234/40 28/76/40
f 130/71/41 200/229/41 201/244/41 25/72/41
f 98/102/40 195/239/40 189/240/40 45/103/40
f 80/100/38 193/243/38 190/236/38 46/101/38
f 117/148/41 197/235/41 191/228/41 61/149/41
f 139/146/39 199/231/39 192/232/39 62/147/39
f 25/186/38 201/242/38 193/243/38 80/100/38
f 45/103/40 189/240/40 194/241/40 72/75/40
f 27/80/40 187/238/40 195/239/40 98/102/40
f 46/101/38 190/236/38 196/237/38 90/83/38
f 28/76/41 188/234/41 197/235/41 117/148/41
f 62/147/39 192/232/39 198/233/39 108/79/39
f 26/84/39 186/230/39 199/231/39 139/146/39
f 61/149/41 191/228/41 200/229/41 130/71/41
f 210/202/16 204/201/16 203/245/16 208/136/16
f 208/136/16 203/245/16 205/180/16 209/137/16
f 203/245/16 202/246/16 206/247/16 205/180/16
f 204/201/16 207/209/16 202/246/16 203/245/16
f 110/135/25 122/189/25 210/202/25 208/136/25
f 145/108/42 141/109/42 202/246/42 207/209/42
f 141/109/42 143/56/42 206/247/42 202/246/42
f 143/56/26 82/157/26 205/180/26 206/247/26
