# Blender v2.81 (sub 16) OBJ File: ''
# www.blender.org
o Wall_straight_Cube.001
v -0.327672 0.000000 1.000000
v -0.270000 0.900000 1.000000
v -0.327672 0.000000 -1.000000
v -0.270000 0.900000 -1.000000
v 0.327672 0.000000 1.000000
v 0.270000 0.900000 1.000000
v 0.327672 0.000000 -1.000000
v 0.270000 0.900000 -1.000000
v -0.311748 0.207968 1.000000
v -0.311748 0.207968 -1.000000
v 0.311748 0.207968 -1.000000
v 0.311748 0.207968 1.000000
v -0.270000 0.753966 1.000000
v -0.270000 0.753966 -1.000000
v 0.270000 0.753966 -1.000000
v 0.270000 0.753966 1.000000
v -0.240000 0.237975 -1.000000
v 0.240000 0.237975 -1.000000
v 0.240000 0.237975 1.000000
v -0.240000 0.237975 1.000000
v -0.216000 0.733963 1.000000
v -0.216000 0.733963 -1.000000
v 0.216000 0.733963 -1.000000
v 0.216000 0.733963 1.000000
v -0.001654 0.000000 -1.000000
v -0.001654 0.000000 1.000000
v -0.001654 0.207968 1.000000
v -0.001654 0.207968 -1.000000
v -0.001489 0.753966 1.000000
v -0.001489 0.753966 -1.000000
v -0.001323 0.237975 -1.000000
v -0.001323 0.237975 1.000000
v -0.001191 0.733963 -1.000000
v -0.001191 0.733963 1.000000
v -0.150827 0.000000 -1.000000
v -0.176255 0.900000 1.000000
v -0.150827 0.207968 1.000000
v -0.176255 0.753966 1.000000
v -0.120662 0.237975 1.000000
v -0.140962 0.733963 1.000000
v -0.176256 0.900000 -1.000000
v -0.150827 0.000000 1.000000
v -0.150827 0.207968 -1.000000
v -0.176256 0.753966 -1.000000
v -0.120662 0.237975 -1.000000
v -0.140962 0.733963 -1.000000
v 0.174745 0.900000 -1.000000
v 0.149173 0.000000 1.000000
v 0.149173 0.207968 -1.000000
v 0.174745 0.753966 -1.000000
v 0.119338 0.237975 -1.000000
v 0.139838 0.733963 -1.000000
v 0.149173 0.000000 -1.000000
v 0.174745 0.900000 1.000000
v 0.149173 0.207968 1.000000
v 0.174745 0.753966 1.000000
v 0.119338 0.237975 1.000000
v 0.139838 0.733963 1.000000
v -0.270000 0.802524 1.000000
v -0.270000 0.802524 -1.000000
v 0.270000 0.802524 -1.000000
v 0.270000 0.802524 1.000000
v -0.001489 0.802524 1.000000
v -0.001489 0.802524 -1.000000
v -0.176256 0.802524 -1.000000
v -0.176255 0.802524 1.000000
v 0.174745 0.802524 1.000000
v 0.174745 0.802524 -1.000000
v -0.327672 0.000000 0.000000
v -0.270000 0.900000 0.000000
v 0.327672 0.000000 0.000000
v 0.270000 0.900000 0.000000
v 0.311748 0.207968 0.000000
v -0.311748 0.207968 0.000000
v 0.270000 0.753966 0.000000
v -0.270000 0.753966 0.000000
v -0.240000 0.237975 0.000000
v 0.240000 0.237975 0.000000
v -0.216000 0.733963 0.000000
v 0.216000 0.733963 0.000000
v -0.001654 0.000000 0.000000
v -0.150827 0.000000 0.000000
v -0.176255 0.900000 0.000000
v -0.001489 0.802524 0.000000
v 0.174745 0.900000 0.000000
v 0.149173 0.000000 0.000000
v 0.174745 0.802524 0.000000
v -0.176255 0.802524 0.000000
v 0.270000 0.802524 0.000000
v -0.270000 0.802524 0.000000
vt 0.601510 0.125000
vt 0.625000 0.125000
vt 0.625000 0.250000
vt 0.601510 0.250000
vt 0.601510 0.437155
vt 0.625000 0.437155
vt 0.625000 0.500000
vt 0.601510 0.500000
vt 0.601510 0.625000
vt 0.625000 0.625000
vt 0.625000 0.750000
vt 0.601510 0.750000
vt 0.601510 0.937845
vt 0.625000 0.937845
vt 0.625000 1.000000
vt 0.601510 1.000000
vt 0.312155 0.625000
vt 0.375000 0.625000
vt 0.375000 0.750000
vt 0.312155 0.750000
vt 0.812845 0.625000
vt 0.875000 0.625000
vt 0.875000 0.750000
vt 0.812845 0.750000
vt 0.375000 0.937845
vt 0.434431 0.937845
vt 0.434431 1.000000
vt 0.375000 1.000000
vt 0.434431 0.625000
vt 0.434431 0.750000
vt 0.375000 0.437155
vt 0.434431 0.437155
vt 0.434431 0.500000
vt 0.375000 0.500000
vt 0.375000 0.125000
vt 0.434431 0.125000
vt 0.434431 0.250000
vt 0.375000 0.250000
vt 0.542123 0.937845
vt 0.578020 0.937845
vt 0.578020 1.000000
vt 0.542123 1.000000
vt 0.542123 0.625000
vt 0.578020 0.625000
vt 0.578020 0.750000
vt 0.542123 0.750000
vt 0.542123 0.437155
vt 0.578020 0.437155
vt 0.578020 0.500000
vt 0.542123 0.500000
vt 0.542123 0.125000
vt 0.578020 0.125000
vt 0.578020 0.250000
vt 0.542123 0.250000
vt 0.506226 0.125000
vt 0.506226 0.250000
vt 0.506226 0.437155
vt 0.506226 0.500000
vt 0.506226 0.625000
vt 0.506226 0.750000
vt 0.506226 0.937845
vt 0.506226 1.000000
vt 0.506226 0.812845
vt 0.542123 0.812845
vt 0.542123 0.875689
vt 0.506226 0.875689
vt 0.506226 0.312155
vt 0.542123 0.312155
vt 0.542123 0.374311
vt 0.506226 0.374311
vt 0.434431 0.812845
vt 0.434431 0.875689
vt 0.434431 0.312155
vt 0.434431 0.374311
vt 0.578020 0.312155
vt 0.578020 0.374311
vt 0.578020 0.812845
vt 0.578020 0.875689
vt 0.375000 0.312155
vt 0.375000 0.374311
vt 0.375000 0.812845
vt 0.375000 0.875689
vt 0.187155 0.625000
vt 0.249311 0.625000
vt 0.249311 0.750000
vt 0.187155 0.750000
vt 0.601510 0.625000
vt 0.601510 0.625000
vt 0.601510 0.875689
vt 0.625000 0.312155
vt 0.601510 0.312155
vt 0.125000 0.625000
vt 0.125000 0.750000
vt 0.601510 0.625000
vt 0.601510 0.374311
vt 0.625000 0.625000
vt 0.601510 0.812845
vt 0.625000 0.812845
vt 0.687845 0.625000
vt 0.687845 0.750000
vt 0.625000 0.625000
vt 0.578020 0.000000
vt 0.601510 0.000000
vt 0.249311 0.500000
vt 0.312155 0.500000
vt 0.687845 0.500000
vt 0.125000 0.500000
vt 0.187155 0.500000
vt 0.506226 0.000000
vt 0.542123 0.000000
vt 0.434431 0.000000
vt 0.375000 0.000000
vt 0.812845 0.500000
vt 0.875000 0.500000
vt 0.625000 0.000000
vn -1.0000 0.0000 0.0000
vn 0.0000 0.0000 -1.0000
vn 1.0000 0.0000 0.0000
vn 0.0000 0.0000 1.0000
vn 0.0000 -1.0000 0.0000
vn 0.0000 1.0000 0.0000
vn 0.9971 0.0763 0.0000
vn -0.9971 0.0763 0.0000
vn 0.3474 -0.9377 0.0000
vn -0.3474 -0.9377 0.0000
vn -0.3858 0.9226 0.0000
vn 0.3858 0.9226 0.0000
vn -0.9988 0.0483 0.0000
vn 0.9988 0.0483 0.0000
s off
f 90/1/1 70/2/1 4/3/1 60/4/1
f 68/5/2 47/6/2 8/7/2 61/8/2
f 89/9/3 72/10/3 6/11/3 62/12/3
f 66/13/4 36/14/4 2/15/4 59/16/4
f 86/17/5 71/18/5 5/19/5 48/20/5
f 83/21/6 70/22/6 2/23/6 36/24/6
f 42/25/4 37/26/4 9/27/4 1/28/4
f 71/18/7 73/29/7 12/30/7 5/19/7
f 53/31/2 49/32/2 11/33/2 7/34/2
f 69/35/8 74/36/8 10/37/8 3/38/8
f 40/39/4 38/40/4 13/41/4 21/42/4
f 80/43/9 75/44/9 16/45/9 24/46/9
f 52/47/2 50/48/2 15/49/2 23/50/2
f 79/51/10 76/52/10 14/53/10 22/54/10
f 74/36/11 77/55/11 17/56/11 10/37/11
f 49/32/2 51/57/2 18/58/2 11/33/2
f 73/29/12 78/59/12 19/60/12 12/30/12
f 37/26/4 39/61/4 20/62/4 9/27/4
f 77/55/13 79/51/13 22/54/13 17/56/13
f 51/57/2 52/47/2 23/50/2 18/58/2
f 78/59/14 80/43/14 24/46/14 19/60/14
f 39/61/4 40/39/4 21/42/4 20/62/4
f 57/63/4 58/64/4 34/65/4 32/66/4
f 45/67/2 46/68/2 33/69/2 31/70/2
f 55/71/4 57/63/4 32/66/4 27/72/4
f 43/73/2 45/67/2 31/70/2 28/74/2
f 46/68/2 44/75/2 30/76/2 33/69/2
f 58/64/4 56/77/4 29/78/4 34/65/4
f 35/79/2 43/73/2 28/74/2 25/80/2
f 48/81/4 55/71/4 27/72/4 26/82/4
f 82/83/5 81/84/5 26/85/5 42/86/5
f 84/87/6 88/88/6 66/13/6 63/89/6
f 60/4/2 4/3/2 41/90/2 65/91/2
f 69/92/5 82/83/5 42/86/5 1/93/5
f 3/38/2 10/37/2 43/73/2 35/79/2
f 22/54/2 14/53/2 44/75/2 46/68/2
f 10/37/2 17/56/2 45/67/2 43/73/2
f 17/56/2 22/54/2 46/68/2 45/67/2
f 32/66/4 34/65/4 40/39/4 39/61/4
f 27/72/4 32/66/4 39/61/4 37/26/4
f 34/65/4 29/78/4 38/40/4 40/39/4
f 26/82/4 27/72/4 37/26/4 42/25/4
f 84/87/6 87/94/6 68/5/6 64/95/6
f 85/96/1 87/94/1 67/97/1 54/98/1
f 62/12/4 6/11/4 54/98/4 67/97/4
f 72/10/6 85/99/6 54/100/6 6/11/6
f 5/19/4 12/30/4 55/71/4 48/81/4
f 24/46/4 16/45/4 56/77/4 58/64/4
f 12/30/4 19/60/4 57/63/4 55/71/4
f 19/60/4 24/46/4 58/64/4 57/63/4
f 31/70/2 33/69/2 52/47/2 51/57/2
f 28/74/2 31/70/2 51/57/2 49/32/2
f 33/69/2 30/76/2 50/48/2 52/47/2
f 25/80/2 28/74/2 49/32/2 53/31/2
f 81/84/5 86/17/5 48/20/5 26/85/5
f 83/101/3 88/88/3 65/91/3 41/90/3
f 30/76/2 64/95/2 68/5/2 50/48/2
f 16/45/4 62/12/4 67/97/4 56/77/4
f 29/78/4 63/89/4 66/13/4 38/40/4
f 14/53/2 60/4/2 65/91/2 44/75/2
f 44/75/2 65/91/2 64/95/2 30/76/2
f 56/77/4 67/97/4 63/89/4 29/78/4
f 38/40/4 66/13/4 59/16/4 13/41/4
f 75/44/3 89/9/3 62/12/3 16/45/3
f 50/48/2 68/5/2 61/8/2 15/49/2
f 76/52/1 90/1/1 60/4/1 14/53/1
f 13/102/1 59/103/1 90/1/1 76/52/1
f 15/49/3 61/8/3 89/9/3 75/44/3
f 36/14/3 66/13/3 88/88/3 83/101/3
f 25/104/5 53/105/5 86/17/5 81/84/5
f 8/7/6 47/106/6 85/99/6 72/10/6
f 47/6/1 68/5/1 87/94/1 85/96/1
f 63/89/6 67/97/6 87/94/6 84/87/6
f 3/107/5 35/108/5 82/83/5 69/92/5
f 64/95/6 65/91/6 88/88/6 84/87/6
f 35/108/5 25/104/5 81/84/5 82/83/5
f 18/58/14 23/50/14 80/43/14 78/59/14
f 20/109/13 21/110/13 79/51/13 77/55/13
f 11/33/12 18/58/12 78/59/12 73/29/12
f 9/111/11 20/109/11 77/55/11 74/36/11
f 21/110/10 13/102/10 76/52/10 79/51/10
f 23/50/9 15/49/9 75/44/9 80/43/9
f 1/112/8 9/111/8 74/36/8 69/35/8
f 7/34/7 11/33/7 73/29/7 71/18/7
f 41/113/6 4/114/6 70/22/6 83/21/6
f 53/105/5 7/34/5 71/18/5 86/17/5
f 61/8/3 8/7/3 72/10/3 89/9/3
f 59/103/1 2/115/1 70/2/1 90/1/1
