# Blender v2.81 (sub 16) OBJ File: 'Wall Proxies.blend'
# www.blender.org
o Wall_intersection_corner_Cube.000
v 1.000000 0.000000 0.327672
v 1.000000 0.900000 0.270000
v 1.000000 0.000000 -0.327672
v 1.000000 0.900000 -0.270000
v 1.000000 0.210000 0.310000
v 1.000000 0.210000 -0.310000
v 1.000000 0.753966 0.270000
v 1.000000 0.753966 -0.270000
v 1.000000 0.240000 -0.240000
v 1.000000 0.240000 0.240000
v 1.000000 0.733963 0.216000
v 1.000000 0.733963 -0.216000
v 1.000000 0.000000 0.001654
v 1.000000 0.210000 0.001654
v 1.000000 0.753966 0.001489
v 1.000000 0.240000 0.001323
v 1.000000 0.733963 0.001191
v 1.000000 0.900000 0.176256
v 1.000000 0.210000 0.150827
v 1.000000 0.753966 0.176256
v 1.000000 0.240000 0.120662
v 1.000000 0.733963 0.140962
v 1.000000 0.900000 -0.174744
v 1.000000 0.210000 -0.149173
v 1.000000 0.753966 -0.174744
v 1.000000 0.240000 -0.119338
v 1.000000 0.733963 -0.139838
v 1.000000 0.802524 0.270000
v 1.000000 0.802524 -0.270000
v 1.000000 0.802524 0.001489
v 1.000000 0.802524 0.176256
v 1.000000 0.802524 -0.174744
v 0.000000 0.000000 -0.327672
v -0.000000 0.000000 0.001654
v -0.000000 0.802524 0.001489
v 0.000000 0.802524 -0.270000
v -0.175418 0.802524 0.176202
v -0.175418 0.900000 0.176127
v 0.175169 0.900000 -0.174745
v 0.175169 0.802524 -0.174745
v 0.216534 0.733963 0.216000
v 0.270000 0.900000 -0.270000
v 0.311964 0.210000 -0.310000
v 0.327935 0.000000 0.001654
v 0.270000 0.900000 0.176256
v 0.270000 0.802524 0.001489
v 0.270000 0.900000 -0.174745
v 0.270000 0.802524 -0.174745
v 0.270000 0.802524 -0.270000
v 0.270000 0.900000 0.270000
v 0.327935 0.000000 -0.327672
v 0.311964 0.210000 0.310000
v 0.270000 0.753966 0.270000
v 0.270000 0.802524 0.176256
v 0.270000 0.802524 0.270000
v -0.327233 0.000000 -0.327672
v -0.270432 0.753966 0.270000
v -0.216569 0.733963 0.216000
v -0.270432 0.802524 0.270000
v -0.216569 0.733963 -0.216000
v -0.270432 0.900000 0.269747
v -0.327672 0.000000 -1.000000
v -0.270000 0.900000 -1.000000
v 0.327672 0.000000 -1.000000
v 0.270000 0.900000 -1.000000
v -0.311748 0.210000 -1.000000
v 0.311748 0.210000 -1.000000
v -0.270000 0.753966 -1.000000
v 0.270000 0.753966 -1.000000
v -0.240000 0.240000 -1.000000
v 0.240000 0.240000 -1.000000
v -0.216000 0.733963 -1.000000
v 0.216000 0.733963 -1.000000
v -0.001654 0.000000 -1.000000
v -0.001654 0.210000 -1.000000
v -0.001489 0.753966 -1.000000
v -0.001323 0.240000 -1.000000
v -0.001191 0.733963 -1.000000
v -0.176256 0.900000 -1.000000
v -0.150827 0.210000 -1.000000
v -0.176256 0.753966 -1.000000
v -0.120662 0.240000 -1.000000
v -0.140962 0.733963 -1.000000
v 0.174745 0.900000 -1.000000
v 0.149173 0.210000 -1.000000
v 0.174745 0.753966 -1.000000
v 0.119338 0.240000 -1.000000
v 0.139838 0.733963 -1.000000
v -0.270000 0.802524 -1.000000
v 0.270000 0.802524 -1.000000
v -0.001489 0.802524 -1.000000
v -0.176256 0.802524 -1.000000
v 0.174745 0.802524 -1.000000
v -0.327672 0.000000 0.330000
v 0.240000 0.240000 0.240000
v 0.216000 0.733963 0.216950
v 0.327672 0.000000 0.330000
v -0.311748 0.210000 0.310000
v -0.240000 0.240000 0.240000
v -0.270000 0.900000 -0.270000
v -0.311748 0.210000 -0.310000
v -0.270000 0.753966 -0.270000
v -0.240000 0.240000 -0.240000
v -0.176255 0.802524 -0.270000
v -0.270000 0.802524 -0.270000
v 0.270000 0.753966 -0.270000
v 0.240000 0.240000 -0.240000
v 0.216000 0.733963 -0.216079
v -0.176255 0.900000 -0.270000
v 0.174745 0.900000 -0.270000
v 0.174745 0.802524 -0.270000
vt 0.601510 0.658542
vt 0.625000 0.658542
vt 0.625000 0.750000
vt 0.601510 0.750000
vt 0.601510 0.937845
vt 0.625000 0.937845
vt 0.625000 1.000000
vt 0.601510 1.000000
vt 0.312155 0.658542
vt 0.375000 0.658542
vt 0.375000 0.750000
vt 0.312155 0.750000
vt 0.812845 0.658542
vt 0.875000 0.658542
vt 0.875000 0.750000
vt 0.812845 0.750000
vt 0.375000 0.937845
vt 0.434431 0.937845
vt 0.434431 1.000000
vt 0.375000 1.000000
vt 0.434431 0.658542
vt 0.434431 0.750000
vt 0.542123 0.937845
vt 0.578020 0.937845
vt 0.578020 1.000000
vt 0.542123 1.000000
vt 0.542123 0.658542
vt 0.578020 0.658542
vt 0.578020 0.750000
vt 0.542123 0.750000
vt 0.506226 0.658542
vt 0.506226 0.750000
vt 0.506226 0.937845
vt 0.506226 1.000000
vt 0.506226 0.812845
vt 0.542123 0.812845
vt 0.542123 0.875689
vt 0.506226 0.875689
vt 0.434431 0.812845
vt 0.434431 0.875689
vt 0.578020 0.812845
vt 0.578020 0.875689
vt 0.375000 0.812845
vt 0.601510 0.692269
vt 0.601510 0.708948
vt 0.601510 0.875689
vt 0.125000 0.658542
vt 0.187155 0.658542
vt 0.187155 0.750000
vt 0.125000 0.750000
vt 0.375000 0.875689
vt 0.625000 0.675406
vt 0.601510 0.675406
vt 0.601510 0.812845
vt 0.625000 0.812845
vt 0.687845 0.658542
vt 0.687845 0.750000
vt 0.601510 0.574201
vt 0.601510 0.146726
vt 0.578020 0.143556
vt 0.578020 0.125000
vt 0.625000 0.146726
vt 0.625000 0.574201
vt 0.542123 0.146726
vt 0.542123 0.125000
vt 0.506226 0.103104
vt 0.542123 0.103104
vt 0.506226 0.125000
vt 0.434431 0.103104
vt 0.434431 0.125000
vt 0.578020 0.103104
vt 0.375000 0.103104
vt 0.375000 0.125000
vt 0.375000 0.591196
vt 0.375000 0.603073
vt 0.312155 0.603073
vt 0.312155 0.591196
vt 0.601510 0.592049
vt 0.625000 0.592049
vt 0.625000 0.591196
vt 0.687845 0.591196
vt 0.687845 0.603073
vt 0.625000 0.603073
vt 0.434431 0.146927
vt 0.434431 0.146726
vt 0.601510 0.091458
vt 0.625000 0.091458
vt 0.625000 0.103104
vt 0.601510 0.103104
vt 0.542123 0.091458
vt 0.506226 0.091458
vt 0.601510 0.657905
vt 0.601510 0.668913
vt 0.625000 0.708948
vt 0.601510 0.679801
vt 0.625000 0.679801
vt 0.125000 0.625000
vt 0.187155 0.646896
vt 0.125000 0.646896
vt 0.601510 0.603073
vt 0.601510 0.625000
vt 0.601510 0.625000
vt 0.601510 0.646896
vt 0.625000 0.646896
vt 0.625000 0.657905
vt 0.578020 0.000000
vt 0.601510 0.000000
vt 0.578020 0.091458
vt 0.506226 0.000000
vt 0.542123 0.000000
vt 0.434431 0.000000
vt 0.434431 0.091458
vt 0.375000 0.000000
vt 0.375000 0.091458
vt 0.625000 0.000000
vt 0.687845 0.646896
vt 0.812845 0.646896
vt 0.875000 0.646896
vt 0.312155 0.646896
vt 0.375000 0.646896
vt 0.625000 0.250000
vt 0.601510 0.250000
vt 0.601510 0.437155
vt 0.625000 0.437155
vt 0.625000 0.500000
vt 0.601510 0.500000
vt 0.375000 0.437155
vt 0.434431 0.437155
vt 0.434431 0.500000
vt 0.375000 0.500000
vt 0.375000 0.146726
vt 0.434431 0.250000
vt 0.375000 0.250000
vt 0.542123 0.437155
vt 0.578020 0.437155
vt 0.578020 0.500000
vt 0.542123 0.500000
vt 0.578020 0.146726
vt 0.578020 0.250000
vt 0.542123 0.250000
vt 0.506226 0.146726
vt 0.506226 0.250000
vt 0.506226 0.437155
vt 0.506226 0.500000
vt 0.506226 0.312155
vt 0.542123 0.312155
vt 0.542123 0.374311
vt 0.506226 0.374311
vt 0.434431 0.312155
vt 0.434431 0.374311
vt 0.578020 0.312155
vt 0.578020 0.374311
vt 0.375000 0.312155
vt 0.625000 0.312155
vt 0.601510 0.312155
vt 0.601510 0.581428
vt 0.601510 0.592351
vt 0.601510 0.374311
vt 0.375000 0.374311
vt 0.625000 0.570625
vt 0.601510 0.570625
vt 0.625000 0.603274
vt 0.601510 0.603274
vt 0.312155 0.500000
vt 0.375000 0.603274
vt 0.312155 0.603274
vt 0.812845 0.500000
vt 0.875000 0.500000
vt 0.875000 0.603274
vt 0.812845 0.603274
vt 0.434431 0.603274
vt 0.578020 0.603274
vt 0.542123 0.603274
vt 0.506226 0.603274
vt 0.125000 0.500000
vt 0.187155 0.500000
vt 0.187155 0.603274
vt 0.125000 0.603274
vt 0.625000 0.592351
vt 0.687845 0.500000
vt 0.687845 0.603274
vt 0.506226 0.146927
vt 0.542123 0.146927
vn 0.0000 0.0000 -1.0000
vn 1.0000 0.0000 0.0000
vn 0.0000 -1.0000 0.0000
vn 0.0000 1.0000 -0.0000
vn 0.0000 0.0839 -0.9965
vn 0.0000 -0.9376 -0.3476
vn 0.0000 0.9191 -0.3939
vn 0.0001 0.0485 -0.9988
vn -0.0000 0.0000 1.0000
vn -1.0000 0.0000 -0.0008
vn -0.3494 -0.9370 -0.0002
vn -0.0000 0.0485 0.9988
vn 0.0000 0.9191 0.3939
vn -0.0000 -0.9377 0.3474
vn 0.0000 0.0948 0.9955
vn 0.7022 0.0012 0.7120
vn -0.9972 0.0746 -0.0003
vn -0.0002 0.0013 1.0000
vn -0.2302 0.9645 -0.1293
vn -0.8699 -0.0651 -0.4889
vn 0.0002 -0.0004 -1.0000
vn 1.0000 -0.0000 -0.0019
vn -1.0000 0.0000 0.0045
vn 0.0006 0.0476 0.9989
vn 0.0002 -0.9368 0.3500
vn 0.0017 0.0894 0.9960
vn -1.0000 0.0000 0.0000
vn -0.9972 0.0746 0.0003
vn -0.3489 -0.9372 -0.0001
vn -0.3858 0.9226 0.0000
vn -0.9988 0.0480 -0.0004
vn 0.9971 0.0757 -0.0004
vn 0.3474 -0.9377 0.0000
vn 0.3852 0.9228 -0.0001
vn 0.9988 0.0485 0.0000
vn -0.9989 0.0474 -0.0000
s off
f 49/1/1 42/2/1 4/3/1 29/4/1
f 31/5/2 18/6/2 2/7/2 28/8/2
f 44/9/3 51/10/3 3/11/3 13/12/3
f 45/13/4 50/14/4 2/15/4 18/16/4
f 13/17/2 19/18/2 5/19/2 1/20/2
f 51/10/5 43/21/5 6/22/5 3/11/5
f 22/23/2 20/24/2 7/25/2 11/26/2
f 108/27/6 106/28/6 8/29/6 12/30/6
f 43/21/7 107/31/7 9/32/7 6/22/7
f 19/18/2 21/33/2 10/34/2 5/19/2
f 107/31/8 108/27/8 12/30/8 9/32/8
f 21/33/2 22/23/2 11/26/2 10/34/2
f 26/35/2 27/36/2 17/37/2 16/38/2
f 24/39/2 26/35/2 16/38/2 14/40/2
f 27/36/2 25/41/2 15/42/2 17/37/2
f 13/43/2 24/39/2 14/40/2
f 46/44/4 54/45/4 31/5/4 30/46/4
f 97/47/3 44/48/3 13/49/3 1/50/3
f 16/38/2 17/37/2 22/23/2 21/33/2
f 14/40/2 16/38/2 21/33/2 19/18/2
f 17/37/2 15/42/2 20/24/2 22/23/2
f 13/51/2 14/40/2 19/18/2
f 47/52/9 48/53/9 32/54/9 23/55/9
f 29/4/2 4/3/2 23/55/2 32/54/2
f 42/2/4 47/56/4 23/57/4 4/3/4
f 3/11/2 6/22/2 24/39/2 13/43/2
f 12/30/2 8/29/2 25/41/2 27/36/2
f 6/22/2 9/32/2 26/35/2 24/39/2
f 9/32/2 12/30/2 27/36/2 26/35/2
f 8/29/2 29/4/2 32/54/2 25/41/2
f 15/42/2 30/46/2 31/5/2 20/24/2
f 25/41/2 32/54/2 30/46/2 15/42/2
f 20/24/2 31/5/2 28/8/2 7/25/2
f 106/28/1 49/1/1 29/4/1 8/29/1
f 59/58/10 105/59/10 102/60/10 57/61/10
f 100/62/10 105/59/10 59/58/10 61/63/10
f 102/60/11 60/64/11 58/65/11 57/61/11
f 95/66/12 41/67/12 58/65/12 99/68/12
f 52/69/13 95/66/13 99/68/13 98/70/13
f 41/67/14 53/71/14 57/61/14 58/65/14
f 97/72/15 52/69/15 98/70/15 94/73/15
f 56/74/3 33/75/3 34/76/3
f 94/77/3 56/74/3 34/76/3
f 61/63/16 59/58/16 37/78/16 38/79/16
f 100/80/4 61/81/4 38/82/4 109/83/4
f 56/74/17 94/77/17 98/84/17 101/85/17
f 55/86/18 50/87/18 61/88/18 59/89/18
f 96/90/19 53/71/19 41/67/19
f 95/91/20 96/90/20 41/67/20
f 46/44/4 48/53/4 40/92/4 35/93/4
f 45/94/21 54/45/21 37/95/21 38/96/21
f 57/61/9 53/71/9 55/86/9 59/89/9
f 94/97/3 34/98/3 97/99/3
f 38/79/22 37/78/22 104/100/22 109/83/22
f 36/101/4 104/100/4 37/78/4 35/102/4
f 111/103/4 36/101/4 35/102/4 40/92/4
f 110/104/23 111/103/23 40/92/23 39/105/23
f 7/106/9 28/107/9 55/86/9 53/108/9
f 18/6/1 31/5/1 54/45/1 45/94/1
f 30/46/4 32/54/4 48/53/4 46/44/4
f 10/109/24 11/110/24 96/90/24 95/91/24
f 5/111/13 10/109/13 95/91/13 52/112/13
f 11/110/25 7/106/25 53/108/25 96/90/25
f 1/113/26 5/111/26 52/112/26 97/114/26
f 28/107/9 2/115/9 50/87/9 55/86/9
f 110/104/4 39/116/4 47/56/4 42/2/4
f 39/105/9 40/92/9 48/53/9 47/52/9
f 97/99/3 34/98/3 44/48/3
f 35/93/4 37/95/4 54/45/4 46/44/4
f 38/117/4 61/118/4 50/14/4 45/13/4
f 34/119/3 33/120/3 51/10/3 44/9/3
f 105/59/27 100/62/27 63/121/27 89/122/27
f 93/123/1 84/124/1 65/125/1 90/126/1
f 74/127/1 85/128/1 67/129/1 64/130/1
f 56/131/28 101/85/28 66/132/28 62/133/28
f 88/134/1 86/135/1 69/136/1 73/137/1
f 60/64/29 102/138/29 68/139/29 72/140/29
f 101/85/30 103/141/30 70/142/30 66/132/30
f 85/128/1 87/143/1 71/144/1 67/129/1
f 103/141/31 60/64/31 72/140/31 70/142/31
f 87/143/1 88/134/1 73/137/1 71/144/1
f 82/145/1 83/146/1 78/147/1 77/148/1
f 80/149/1 82/145/1 77/148/1 75/150/1
f 83/146/1 81/151/1 76/152/1 78/147/1
f 74/153/1 80/149/1 75/150/1
f 89/122/1 63/121/1 79/154/1 92/155/1
f 62/133/1 66/132/1 80/149/1 74/153/1
f 72/140/1 68/139/1 81/151/1 83/146/1
f 66/132/1 70/142/1 82/145/1 80/149/1
f 70/142/1 72/140/1 83/146/1 82/145/1
f 36/156/4 111/157/4 93/123/4 91/158/4
f 77/148/1 78/147/1 88/134/1 87/143/1
f 75/150/1 77/148/1 87/143/1 85/128/1
f 78/147/1 76/152/1 86/135/1 88/134/1
f 74/159/1 75/150/1 85/128/1
f 109/160/2 104/161/2 92/155/2 79/154/2
f 76/152/1 91/158/1 93/123/1 86/135/1
f 68/139/1 89/122/1 92/155/1 81/151/1
f 81/151/1 92/155/1 91/158/1 76/152/1
f 86/135/1 93/123/1 90/126/1 69/136/1
f 102/138/27 105/59/27 89/122/27 68/139/27
f 90/126/2 65/125/2 42/162/2 49/163/2
f 74/164/3 64/130/3 51/165/3 33/166/3
f 79/167/4 63/168/4 100/169/4 109/170/4
f 64/130/32 67/129/32 43/171/32 51/165/32
f 73/137/33 69/136/33 106/172/33 108/173/33
f 67/129/34 71/144/34 107/174/34 43/171/34
f 71/144/35 73/137/35 108/173/35 107/174/35
f 91/158/4 92/155/4 104/161/4 36/156/4
f 62/175/3 74/176/3 33/177/3 56/178/3
f 84/124/27 93/123/27 111/157/27 110/179/27
f 65/125/4 84/180/4 110/181/4 42/162/4
f 69/136/2 90/126/2 49/163/2 106/172/2
f 99/182/36 58/183/36 60/64/36 103/141/36
f 103/141/30 101/85/30 98/84/30 99/182/30
